<svg width="780" height="570" xmlns="http://www.w3.org/2000/svg" xmlns:xlink="http://www.w3.org/1999/xlink"><defs><path id="P" d="M14.48.526L.445 8.627l14.033 8.102 14.033-8.101z"/><path id="aG" d="M.435 16.347l13.691 7.905V8.442L.436.538z"/><path id="aE" d="M14.126.513L.436 8.417l13.69 7.904 13.691-7.903z"/><path id="d" d="M0 .245h29.464v17.89H0z"/><path id="f" d="M.187 8.442v15.81l13.69-7.905V.538z"/><path id="h" d="M14.126.513L.436 8.417l13.69 7.904 13.691-7.903z"/><path id="j" d="M.435 16.347l13.691 7.905V8.442L.436.538z"/><path id="aC" d="M.187 8.442v15.81l13.69-7.905V.538z"/><path id="m" d="M0 .245h29.464v17.89H0z"/><path id="o" d="M.187 8.442v15.81l13.69-7.905V.538z"/><path id="q" d="M14.126.513L.436 8.417l13.69 7.904 13.691-7.903z"/><path id="s" d="M.435 16.347l13.691 7.905V8.442L.436.538z"/><path id="aA" d="M0 .245h29.464v17.89H0z"/><path id="v" d="M0 .245h29.464v17.89H0z"/><path id="x" d="M.187 8.442v15.81l13.69-7.905V.538z"/><path id="z" d="M14.126.513L.436 8.417l13.69 7.904 13.691-7.903z"/><path id="B" d="M.435 16.347l13.691 7.905V8.442L.436.538z"/><path id="ay" d="M.446 16.756l14.033 8.102V8.653L.446.552z"/><path id="E" d="M0 .227h29.464V16.81H0z"/><path id="G" d="M.187 7.825v14.652l13.69-7.326V.5z"/><path id="I" d="M14.126.475L.436 7.801l13.69 7.326 13.691-7.325z"/><path id="K" d="M.435 15.151l13.691 7.326V7.825L.436.499z"/><path id="aw" d="M14.48.526L.445 8.627l14.033 8.102 14.033-8.101z"/><path id="N" d="M.191 8.653v16.205l14.034-8.102V.552z"/><path id="au" d="M.191 8.653v16.205l14.034-8.102V.552z"/><path id="R" d="M.446 16.756l14.033 8.102V8.653L.446.552z"/><path id="as" d="M.446 16.756l14.033 8.102V8.653L.446.552z"/><path id="U" d="M.191 8.653v16.205l14.034-8.102V.552z"/><path id="W" d="M14.48.526L.445 8.627l14.033 8.102 14.033-8.101z"/><path id="Y" d="M.446 16.756l14.033 8.102V8.653L.446.552z"/><path id="aa" d="M.191 8.653v16.205l14.034-8.102V.552z"/><path id="ac" d="M14.48.526L.445 8.627l14.033 8.102 14.033-8.101z"/><path id="ae" d="M.446 16.756l14.033 8.102V8.653L.446.552z"/><path id="aq" d="M14.48.526L.445 8.627l14.033 8.102 14.033-8.101z"/><path id="ah" d="M.191 8.653v16.205l14.034-8.102V.552z"/><path id="aj" d="M14.48.526L.445 8.627l14.033 8.102 14.033-8.101z"/><path id="al" d="M.446 16.756l14.033 8.102V8.653L.446.552z"/><path id="ao" d="M.191 8.653v16.205l14.034-8.102V.552z"/><linearGradient x1="49.65%" y1="-3.98%" x2="49.65%" y2="99.822%" id="an"><stop stop-color="#45B6EE" offset="0%"/><stop stop-color="#003B8A" offset="34.111%"/><stop stop-color="#021F2F" offset="70.394%"/><stop stop-color="#021F2F" stop-opacity="0" offset="100%"/></linearGradient><linearGradient x1="49.65%" y1="-3.98%" x2="49.65%" y2="99.822%" id="ag"><stop stop-color="#45B6EE" offset="0%"/><stop stop-color="#003B8A" offset="34.111%"/><stop stop-color="#021F2F" offset="70.394%"/><stop stop-color="#021F2F" stop-opacity="0" offset="100%"/></linearGradient><linearGradient x1="49.65%" y1="-3.98%" x2="49.65%" y2="99.822%" id="T"><stop stop-color="#45B6EE" offset="0%"/><stop stop-color="#003B8A" offset="34.111%"/><stop stop-color="#021F2F" offset="100%"/></linearGradient><linearGradient x1="49.65%" y1="37.926%" x2="50%" y2="61.754%" id="b"><stop stop-color="#021F2F" offset="0%"/><stop stop-color="#021F2F" offset="0%"/><stop stop-color="#003B8A" offset="15.563%"/><stop stop-color="#1478FF" offset="71.336%"/><stop stop-color="#1EDBFF" offset="100%"/></linearGradient><linearGradient x1="49.65%" y1="-3.98%" x2="49.65%" y2="99.822%" id="M"><stop stop-color="#45B6EE" offset="0%"/><stop stop-color="#003B8A" offset="34.111%"/><stop stop-color="#021F2F" offset="70.394%"/><stop stop-color="#021F2F" stop-opacity="0" offset="100%"/></linearGradient><linearGradient x1="49.65%" y1="-3.98%" x2="49.65%" y2="99.822%" id="D"><stop stop-color="#021F2F" stop-opacity="0" offset="0%"/><stop stop-color="#021F2F" offset="29.606%"/><stop stop-color="#003B8A" offset="65.889%"/><stop stop-color="#45B6EE" offset="100%"/></linearGradient><linearGradient x1="49.65%" y1="-3.98%" x2="49.65%" y2="99.822%" id="u"><stop stop-color="#021F2F" offset="0%"/><stop stop-color="#003B8A" offset="65.889%"/><stop stop-color="#45B6EE" offset="100%"/></linearGradient><linearGradient x1="49.65%" y1="-3.98%" x2="49.65%" y2="99.822%" id="l"><stop stop-color="#021F2F" offset="0%"/><stop stop-color="#003B8A" offset="65.889%"/><stop stop-color="#45B6EE" offset="100%"/></linearGradient><linearGradient x1="49.65%" y1="-3.98%" x2="49.65%" y2="99.822%" id="c"><stop stop-color="#021F2F" stop-opacity="0" offset="0%"/><stop stop-color="#021F2F" offset="29.606%"/><stop stop-color="#003B8A" offset="65.889%"/><stop stop-color="#45B6EE" offset="100%"/></linearGradient><linearGradient x1="49.65%" y1="34.406%" x2="50%" y2="65.181%" id="a"><stop stop-color="#003B8A" stop-opacity="0" offset="0%"/><stop stop-color="#1478FF" offset="71.336%"/><stop stop-color="#1EDBFF" offset="100%"/></linearGradient></defs><g fill="none" fill-rule="evenodd"><g fill="#1478FF"><path d="M550.365 429.017l-.365.627 143.951 83.355.182-.099-.17-.735z"/><path d="M578 447.33a4.668 4.668 0 119.336 0 4.67 4.67 0 01-4.668 4.67 4.67 4.67 0 01-4.668-4.67" opacity=".15"/><path d="M580.643 447.33a2.026 2.026 0 114.05 0 2.026 2.026 0 01-4.05 0"/></g><g fill="#1478FF"><path d="M227.635 440.017l.365.627-143.951 83.355-.182-.099.17-.735z"/><path d="M183 469.33a4.668 4.668 0 10-9.336 0 4.67 4.67 0 004.668 4.67 4.67 4.67 0 004.668-4.67" opacity=".15"/><path d="M180.357 469.33a2.026 2.026 0 10-4.05 0 2.026 2.026 0 004.05 0"/></g><path d="M496.584 454.522v-27.633l-23.124-.014-7.994-4.614c-1.834-1.06-5.037 16.395-7.156 17.618l-7.458 4.304-23.145-.012v10.606c-.052.716.347 1.408 1.23 1.917l29.888 17.257c1.835 1.058 5.038.926 7.157-.297l28.86-16.663c1.221-.705 1.81-1.619 1.742-2.47" fill="#003B8A"/><path d="M458.31 422.558l-7.458 4.305-23.145-.013v27.927c-.051.716.347 1.408 1.23 1.917l29.888 17.257c.882.508 2.08.738 3.321.709v-53.109c-1.342.033-2.735.37-3.836 1.007"/><path d="M458.31 422.558l-7.458 4.305-23.145-.013v27.927c-.051.716.347 1.408 1.23 1.917l29.888 17.257c.882.508 2.08.738 3.321.709v-53.109c-1.342.033-2.735.37-3.836 1.007" fill="#1EDBFF"/><path d="M430.327 426.851l-2.62-.001v27.927c-.052.716.347 1.408 1.23 1.917l1.39.803v-30.646zM459.285 474.176c1.582.678 3.871.64 5.721-.065v-29.363h-5.72v29.428z" fill="#021F2F"/><path d="M494.842 427.073l-28.86 16.663c-2.12 1.222-5.323 1.356-7.157.297l-29.889-17.257a2.776 2.776 0 01-.915-.811c-.63 1.014-.345 2.114.915 2.84l29.889 17.257c1.834 1.059 5.038.926 7.157-.297l28.86-16.662c1.645-.95 2.146-2.278 1.429-3.32-.288.463-.766.907-1.43 1.29" fill="#FFF"/><path d="M485.591 457.243c0 .77-.54 1.706-1.208 2.092-.666.384-1.207.072-1.207-.698 0-.77.54-1.706 1.207-2.091.668-.385 1.208-.073 1.208.697" fill="#1EDBFF"/><path d="M489.475 455.001c0 .77-.54 1.706-1.208 2.09-.666.385-1.206.073-1.206-.697 0-.769.54-1.705 1.206-2.09.667-.385 1.208-.074 1.208.697M493.359 452.758c0 .771-.54 1.706-1.208 2.092-.666.384-1.206.072-1.206-.697 0-.77.54-1.707 1.206-2.092.668-.384 1.208-.073 1.208.697" fill="#FFF"/><path d="M458.31 408.012l-28.86 16.661c-2.118 1.223-2.348 3.073-.513 4.133l29.888 17.256c1.834 1.059 5.038.926 7.156-.297l28.861-16.662c2.117-1.223 2.348-3.073.514-4.132l-29.89-17.256c-.83-.48-1.943-.715-3.108-.715-1.407 0-2.89.343-4.048 1.012" fill="#005AFF"/><path d="M460.592 435.363l-13.986-8.075c-.86-.495-.752-1.361.24-1.934l13.506-7.797c.99-.572 2.49-.634 3.348-.138l13.986 8.075c.859.496.751 1.361-.24 1.933l-13.505 7.797c-.991.573-2.491.634-3.35.139" fill="#021F2F"/><path d="M461.931 428.602l-1.934-1.117c-.12-.068-.104-.189.033-.268l1.868-1.079c.136-.08.344-.087.463-.019l1.935 1.117c.12.069.104.19-.033.268l-1.868 1.08c-.138.078-.345.087-.464.018" fill="#7FD5FF"/><path d="M446.606 427.288l.04.022c.064-.046.124-.093.2-.137l13.505-7.797c.992-.573 2.49-.634 3.349-.139l13.947 8.052c.792-.566.833-1.337.04-1.795L463.7 417.42c-.859-.496-2.357-.434-3.349.139l-13.505 7.797c-.991.572-1.099 1.437-.24 1.933" fill="#7FD5FF"/><g><path d="M497.416 419.522v-27.633l23.124-.014 7.994-4.614c1.834-1.06 5.037 16.395 7.156 17.618l7.458 4.304 23.145-.012v10.606c.052.716-.347 1.408-1.23 1.917l-29.888 17.257c-1.835 1.058-5.038.926-7.157-.297l-28.86-16.663c-1.221-.705-1.81-1.619-1.742-2.47" fill="#003B8A"/><path d="M535.69 387.558l7.458 4.305 23.145-.013v27.927c.051.716-.347 1.408-1.23 1.917l-29.888 17.257c-.882.508-2.08.738-3.321.709v-53.109c1.342.033 2.735.37 3.836 1.007"/><path d="M535.69 387.558l7.458 4.305 23.145-.013v27.927c.051.716-.347 1.408-1.23 1.917l-29.888 17.257c-.882.508-2.08.738-3.321.709v-53.109c1.342.033 2.735.37 3.836 1.007" fill="#1EDBFF"/><path d="M563.673 391.851l2.62-.001v27.927c.052.716-.347 1.408-1.23 1.917l-1.39.803v-30.646zM534.715 439.176c-1.582.678-3.871.64-5.721-.065v-29.363h5.72v29.428z" fill="#021F2F"/><path d="M499.158 392.073l28.86 16.663c2.12 1.222 5.323 1.356 7.157.297l29.889-17.257c.409-.236.71-.514.915-.811.63 1.014.345 2.114-.915 2.84l-29.889 17.257c-1.834 1.059-5.038.926-7.157-.297l-28.86-16.662c-1.645-.95-2.146-2.278-1.429-3.32.288.463.766.907 1.43 1.29" fill="#FFF"/><path d="M508.409 422.243c0 .77.54 1.706 1.208 2.092.666.384 1.207.072 1.207-.698 0-.77-.54-1.706-1.207-2.091-.668-.385-1.208-.073-1.208.697" fill="#1EDBFF"/><path d="M504.525 420.001c0 .77.54 1.706 1.208 2.09.666.385 1.206.073 1.206-.697 0-.769-.54-1.705-1.206-2.09-.667-.385-1.208-.074-1.208.697M500.641 417.758c0 .771.54 1.706 1.208 2.092.666.384 1.206.072 1.206-.697 0-.77-.54-1.707-1.206-2.092-.668-.384-1.208-.073-1.208.697" fill="#FFF"/><path d="M535.69 373.012l28.86 16.661c2.118 1.223 2.348 3.073.513 4.133l-29.888 17.256c-1.834 1.059-5.038.926-7.156-.297l-28.861-16.662c-2.117-1.223-2.348-3.073-.514-4.132l29.89-17.256c.83-.48 1.943-.715 3.108-.715 1.407 0 2.89.343 4.048 1.012" fill="#005AFF"/><path d="M533.408 400.363l13.986-8.075c.86-.495.752-1.361-.24-1.934l-13.506-7.797c-.99-.572-2.49-.634-3.348-.138l-13.986 8.075c-.859.496-.751 1.361.24 1.933l13.505 7.797c.991.573 2.491.634 3.35.139" fill="#021F2F"/><path d="M532.069 393.602l1.934-1.117c.12-.068.104-.189-.033-.268l-1.868-1.079c-.136-.08-.344-.087-.463-.019l-1.935 1.117c-.12.069-.104.19.033.268l1.868 1.08c.138.078.345.087.464.018" fill="#7FD5FF"/><path d="M547.394 392.288l-.04.022c-.064-.046-.124-.093-.2-.137l-13.505-7.797c-.992-.573-2.49-.634-3.349-.139l-13.947 8.052c-.792-.566-.833-1.337-.04-1.795l13.987-8.075c.859-.496 2.357-.434 3.349.139l13.505 7.797c.991.572 1.099 1.437.24 1.933" fill="#7FD5FF"/></g><g><path d="M219.063 421.106v-28.554l23.895-.014 8.26-4.769c1.896-1.095 5.206 16.942 7.395 18.206l7.707 4.447 23.916-.012v10.96c.054.74-.359 1.455-1.27 1.98l-30.885 17.833c-1.896 1.093-5.206.956-7.395-.307l-29.822-17.218c-1.263-.73-1.871-1.674-1.8-2.552" fill="#005AFF"/><path d="M258.613 388.077l7.706 4.448 23.917-.014v28.858c.053.74-.359 1.455-1.27 1.982l-30.885 17.831c-.911.526-2.15.764-3.432.733v-54.879c1.387.034 2.827.383 3.964 1.041"/><path d="M258.613 388.077l7.706 4.448 23.917-.014v28.858c.053.74-.359 1.455-1.27 1.982l-30.885 17.831c-.911.526-2.15.764-3.432.733v-54.879c1.387.034 2.827.383 3.964 1.041" fill="#1EDBFF"/><path d="M287.529 392.513l2.707-.002v28.858c.054.74-.359 1.456-1.27 1.982l-1.437.83v-31.668zM257.605 441.415c-1.635.7-4 .661-5.911-.067v-30.342h5.911v30.409z" fill="#021F2F"/><path d="M220.864 392.742l29.821 17.218c2.19 1.264 5.5 1.402 7.396.307l30.885-17.832c.422-.243.733-.53.946-.838.651 1.048.356 2.184-.946 2.935l-30.885 17.832c-1.895 1.094-5.206.957-7.396-.307l-29.821-17.217c-1.7-.983-2.218-2.354-1.477-3.43.297.478.791.937 1.477 1.332" fill="#FFF"/><path d="M230.423 423.918c0 .795.558 1.763 1.248 2.161.688.397 1.247.075 1.247-.721 0-.795-.559-1.762-1.247-2.16-.69-.398-1.248-.076-1.248.72" fill="#021F2F"/><path d="M226.41 421.601c0 .796.558 1.763 1.247 2.16.688.398 1.247.076 1.247-.72 0-.795-.559-1.762-1.247-2.16-.689-.398-1.247-.076-1.247.72" fill="#FFF"/><path d="M222.396 419.283c0 .797.558 1.763 1.248 2.162.688.397 1.247.075 1.247-.72 0-.796-.559-1.764-1.247-2.162-.69-.397-1.248-.075-1.248.72" fill="#021F2F"/><path d="M258.613 373.045l29.823 17.217c2.188 1.264 2.425 3.175.53 4.27l-30.885 17.832c-1.896 1.094-5.206.956-7.395-.307l-29.823-17.217c-2.188-1.264-2.426-3.175-.53-4.27l30.885-17.83c.859-.497 2.008-.74 3.212-.74 1.454 0 2.987.354 4.183 1.045" fill="#7FD5FF"/><path d="M256.255 401.308l14.452-8.344c.888-.512.777-1.406-.248-1.998l-13.956-8.057c-1.024-.591-2.573-.655-3.46-.143l-14.452 8.344c-.887.513-.776 1.407.248 1.998l13.956 8.057c1.023.592 2.573.655 3.46.143" fill="#021F2F"/><path d="M254.87 394.322l2-1.154c.124-.07.108-.195-.034-.277l-1.93-1.115c-.142-.082-.356-.09-.479-.02l-2 1.155c-.123.07-.107.195.035.276l1.93 1.116c.142.081.356.09.479.02" fill="#0FEBF2"/><path d="M270.707 392.964l-.04.023c-.068-.047-.13-.096-.207-.142l-13.956-8.057c-1.025-.591-2.573-.655-3.46-.143l-14.413 8.32c-.818-.584-.86-1.382-.04-1.854l14.453-8.345c.887-.512 2.435-.448 3.46.144l13.956 8.057c1.023.591 1.134 1.485.247 1.997" fill="#085DD0"/></g><g><path d="M283.063 456.106v-28.554l23.895-.014 8.26-4.769c1.896-1.095 5.206 16.942 7.395 18.206l7.707 4.447 23.916-.012v10.96c.054.74-.359 1.455-1.27 1.98l-30.885 17.833c-1.896 1.093-5.206.956-7.395-.307l-29.822-17.218c-1.263-.73-1.871-1.674-1.8-2.552" fill="#005AFF"/><path d="M322.613 423.077l7.706 4.448 23.917-.014v28.858c.053.74-.359 1.455-1.27 1.982l-30.885 17.831c-.911.526-2.15.764-3.432.733v-54.879c1.387.034 2.827.383 3.964 1.041"/><path d="M322.613 423.077l7.706 4.448 23.917-.014v28.858c.053.74-.359 1.455-1.27 1.982l-30.885 17.831c-.911.526-2.15.764-3.432.733v-54.879c1.387.034 2.827.383 3.964 1.041" fill="#1EDBFF"/><path d="M351.529 427.513l2.707-.002v28.858c.054.74-.359 1.456-1.27 1.982l-1.437.83v-31.668zM321.605 476.415c-1.635.7-4 .661-5.911-.067v-30.342h5.911v30.409z" fill="#021F2F"/><path d="M284.864 427.742l29.821 17.218c2.19 1.264 5.5 1.402 7.396.307l30.885-17.832c.422-.243.733-.53.946-.838.651 1.048.356 2.184-.946 2.935l-30.885 17.832c-1.895 1.094-5.206.957-7.396-.307l-29.821-17.217c-1.7-.983-2.218-2.354-1.477-3.43.297.478.791.937 1.477 1.332" fill="#FFF"/><path d="M294.423 458.918c0 .795.558 1.763 1.248 2.161.688.397 1.247.075 1.247-.721 0-.795-.559-1.762-1.247-2.16-.69-.398-1.248-.076-1.248.72" fill="#021F2F"/><path d="M290.41 456.601c0 .796.558 1.763 1.247 2.16.688.398 1.247.076 1.247-.72 0-.795-.559-1.762-1.247-2.16-.689-.398-1.247-.076-1.247.72" fill="#FFF"/><path d="M286.396 454.283c0 .797.558 1.763 1.248 2.162.688.397 1.247.075 1.247-.72 0-.796-.559-1.764-1.247-2.162-.69-.397-1.248-.075-1.248.72" fill="#021F2F"/><path d="M322.613 408.045l29.823 17.217c2.188 1.264 2.425 3.175.53 4.27l-30.885 17.832c-1.896 1.094-5.206.956-7.395-.307l-29.823-17.217c-2.188-1.264-2.426-3.175-.53-4.27l30.885-17.83c.859-.497 2.008-.74 3.212-.74 1.454 0 2.987.354 4.183 1.045" fill="#7FD5FF"/><path d="M320.255 436.308l14.452-8.344c.888-.512.777-1.406-.248-1.998l-13.956-8.057c-1.024-.591-2.573-.655-3.46-.143l-14.452 8.344c-.887.513-.776 1.407.248 1.998l13.956 8.057c1.023.592 2.573.655 3.46.143" fill="#021F2F"/><path d="M318.87 429.322l2-1.154c.124-.07.108-.195-.034-.277l-1.93-1.115c-.142-.082-.356-.09-.479-.02l-2 1.155c-.123.07-.107.195.035.276l1.93 1.116c.142.081.356.09.479.02" fill="#0FEBF2"/><path d="M334.707 427.964l-.04.023c-.068-.047-.13-.096-.207-.142l-13.956-8.057c-1.025-.591-2.573-.655-3.46-.143l-14.413 8.32c-.818-.584-.86-1.382-.04-1.854l14.453-8.345c.887-.512 2.435-.448 3.46.144l13.956 8.057c1.023.591 1.134 1.485.247 1.997" fill="#085DD0"/></g><g><path d="M355.063 491.106v-28.554l23.895-.014 8.26-4.769c1.896-1.095 5.206 16.942 7.395 18.206l7.707 4.447 23.916-.012v10.96c.054.74-.359 1.455-1.27 1.98l-30.885 17.833c-1.896 1.093-5.206.956-7.395-.307l-29.822-17.218c-1.263-.73-1.871-1.674-1.8-2.552" fill="#005AFF"/><path d="M394.613 458.077l7.706 4.448 23.917-.014v28.858c.053.74-.359 1.455-1.27 1.982l-30.885 17.831c-.911.526-2.15.764-3.432.733v-54.879c1.387.034 2.827.383 3.964 1.041"/><path d="M394.613 458.077l7.706 4.448 23.917-.014v28.858c.053.74-.359 1.455-1.27 1.982l-30.885 17.831c-.911.526-2.15.764-3.432.733v-54.879c1.387.034 2.827.383 3.964 1.041" fill="#1EDBFF"/><path d="M423.529 462.513l2.707-.002v28.858c.054.74-.359 1.456-1.27 1.982l-1.437.83v-31.668zM393.605 511.415c-1.635.7-4 .661-5.911-.067v-30.342h5.911v30.409z" fill="#021F2F"/><path d="M356.864 462.742l29.821 17.218c2.19 1.264 5.5 1.402 7.396.307l30.885-17.832c.422-.243.733-.53.946-.838.651 1.048.356 2.184-.946 2.935l-30.885 17.832c-1.895 1.094-5.206.957-7.396-.307l-29.821-17.217c-1.7-.983-2.218-2.354-1.477-3.43.297.478.791.937 1.477 1.332" fill="#FFF"/><path d="M366.423 493.918c0 .795.558 1.763 1.248 2.161.688.397 1.247.075 1.247-.721 0-.795-.559-1.762-1.247-2.16-.69-.398-1.248-.076-1.248.72" fill="#021F2F"/><path d="M362.41 491.601c0 .796.558 1.763 1.247 2.16.688.398 1.247.076 1.247-.72 0-.795-.559-1.762-1.247-2.16-.689-.398-1.247-.076-1.247.72" fill="#FFF"/><path d="M358.396 489.283c0 .797.558 1.763 1.248 2.162.688.397 1.247.075 1.247-.72 0-.796-.559-1.764-1.247-2.162-.69-.397-1.248-.075-1.248.72" fill="#021F2F"/><path d="M394.613 443.045l29.823 17.217c2.188 1.264 2.425 3.175.53 4.27l-30.885 17.832c-1.896 1.094-5.206.956-7.395-.307l-29.823-17.217c-2.188-1.264-2.426-3.175-.53-4.27l30.885-17.83c.859-.497 2.008-.74 3.212-.74 1.454 0 2.987.354 4.183 1.045" fill="#7FD5FF"/><path d="M392.255 471.308l14.452-8.344c.888-.512.777-1.406-.248-1.998l-13.956-8.057c-1.024-.591-2.573-.655-3.46-.143l-14.452 8.344c-.887.513-.776 1.407.248 1.998l13.956 8.057c1.023.592 2.573.655 3.46.143" fill="#021F2F"/><path d="M390.87 464.322l2-1.154c.124-.07.108-.195-.034-.277l-1.93-1.115c-.142-.082-.356-.09-.479-.02l-2 1.155c-.123.07-.107.195.035.276l1.93 1.116c.142.081.356.09.479.02" fill="#0FEBF2"/><path d="M406.707 462.964l-.04.023c-.068-.047-.13-.096-.207-.142l-13.956-8.057c-1.025-.591-2.573-.655-3.46-.143l-14.413 8.32c-.818-.584-.86-1.382-.04-1.854l14.453-8.345c.887-.512 2.435-.448 3.46.144l13.956 8.057c1.023.591 1.134 1.485.247 1.997" fill="#085DD0"/></g><g><path fill="url(#a)" fill-rule="nonzero" opacity=".6" d="M370.962 107.002v136.296L185.506 350.373.044 243.296V107z" transform="translate(205 185)"/><path fill="#1478FF" d="M575.962 292.303v21.432L390.506 420.808 205.044 313.73V292.3z"/><path fill="#021F2F" d="M390.505 399.378L205.043 292.3 390.5 185.226l185.463 107.077z"/><path fill="url(#b)" opacity=".387" d="M184.796 198.203L27 107.102 184.793 16l157.796 91.104z" transform="translate(205 185)"/></g><g><path fill="url(#c)" fill-rule="nonzero" transform="rotate(180 168 153.5)" d="M14 38h1v200h-1z"/><g transform="translate(307 52.305)"><mask id="e" fill="#fff"><use xlink:href="#d"/></mask><path d="M3.123 9.19l11.61 6.703L26.342 9.19l-11.61-6.702L3.123 9.19zm11.61 8.946c-.18 0-.36-.047-.52-.14L.52 10.09a1.041 1.041 0 010-1.802L14.211.385a1.04 1.04 0 011.042 0l13.691 7.904a1.041 1.041 0 010 1.802l-13.69 7.905c-.162.093-.341.14-.521.14z" fill="#021F2F" mask="url(#e)"/></g><g transform="translate(321.545 38.972)"><mask id="g" fill="#fff"><use xlink:href="#f"/></mask><path fill="#12577E" mask="url(#g)" d="M.187 8.442v15.81l13.69-7.905V.538z"/></g><g transform="translate(307.606 31.093)"><mask id="i" fill="#fff"><use xlink:href="#h"/></mask><path fill="#7FD5FF" mask="url(#i)" d="M14.126.513L.436 8.417l13.69 7.904 13.691-7.903z"/></g><g transform="translate(307.606 38.972)"><mask id="k" fill="#fff"><use xlink:href="#j"/></mask><path fill="#4DACDA" mask="url(#k)" d="M.435 16.347l13.691 7.905V8.442L.436.538z"/></g><path fill="#021F2F" d="M316.801 54.683l-3.829-2.21V48.05l3.83 2.21z"/><path fill="url(#l)" fill-rule="nonzero" transform="rotate(180 262.5 158.5)" d="M14 38h1v200h-1z"/><g transform="translate(496 62.305)"><mask id="n" fill="#fff"><use xlink:href="#m"/></mask><path d="M3.123 9.19l11.61 6.703L26.342 9.19l-11.61-6.702L3.123 9.19zm11.61 8.946c-.18 0-.36-.047-.52-.14L.52 10.09a1.041 1.041 0 010-1.802L14.211.385a1.04 1.04 0 011.042 0l13.691 7.904a1.041 1.041 0 010 1.802l-13.69 7.905c-.162.093-.341.14-.521.14z" fill="#021F2F" mask="url(#n)"/></g><g transform="translate(510.545 48.972)"><mask id="p" fill="#fff"><use xlink:href="#o"/></mask><path fill="#12577E" mask="url(#p)" d="M.187 8.442v15.81l13.69-7.905V.538z"/></g><g transform="translate(496.606 41.093)"><mask id="r" fill="#fff"><use xlink:href="#q"/></mask><path fill="#7FD5FF" mask="url(#r)" d="M14.126.513L.436 8.417l13.69 7.904 13.691-7.903z"/></g><g transform="translate(496.606 48.972)"><mask id="t" fill="#fff"><use xlink:href="#s"/></mask><path fill="#4DACDA" mask="url(#t)" d="M.435 16.347l13.691 7.905V8.442L.436.538z"/></g><path fill="#021F2F" d="M505.801 64.683l-3.829-2.21V58.05l3.83 2.21z"/><g><path fill="url(#u)" fill-rule="nonzero" transform="rotate(180 144.5 158.5)" d="M14 38h1v100h-1z"/><g transform="translate(260 162.305)"><mask id="w" fill="#fff"><use xlink:href="#v"/></mask><path d="M3.123 9.19l11.61 6.703L26.342 9.19l-11.61-6.702L3.123 9.19zm11.61 8.946c-.18 0-.36-.047-.52-.14L.52 10.09a1.041 1.041 0 010-1.802L14.211.385a1.04 1.04 0 011.042 0l13.691 7.904a1.041 1.041 0 010 1.802l-13.69 7.905c-.162.093-.341.14-.521.14z" fill="#021F2F" mask="url(#w)"/></g><g transform="translate(274.545 148.972)"><mask id="y" fill="#fff"><use xlink:href="#x"/></mask><path fill="#12577E" mask="url(#y)" d="M.187 8.442v15.81l13.69-7.905V.538z"/></g><g transform="translate(260.606 141.093)"><mask id="A" fill="#fff"><use xlink:href="#z"/></mask><path fill="#7FD5FF" mask="url(#A)" d="M14.126.513L.436 8.417l13.69 7.904 13.691-7.903z"/></g><g transform="translate(260.606 148.972)"><mask id="C" fill="#fff"><use xlink:href="#B"/></mask><path fill="#4DACDA" mask="url(#C)" d="M.435 16.347l13.691 7.905V8.442L.436.538z"/></g><path fill="#021F2F" d="M269.801 164.683l-3.829-2.21v-4.422l3.83 2.21z"/></g><g><path fill="url(#D)" fill-rule="nonzero" transform="matrix(1 0 0 -1 382 361)" d="M14 35h1v275h-1z"/><g transform="matrix(-1 0 0 1 411 35.746)"><mask id="F" fill="#fff"><use xlink:href="#E"/></mask><path d="M3.123 8.518l11.61 6.212 11.609-6.212-11.61-6.212L3.123 8.518zm11.61 8.29c-.18 0-.36-.043-.52-.13L.52 9.354a.954.954 0 01-.52-.835c0-.345.198-.664.52-.836L14.211.357a1.111 1.111 0 011.042 0l13.691 7.325c.322.172.52.491.52.836a.954.954 0 01-.52.835l-13.69 7.326c-.162.086-.341.13-.521.13z" fill="#021F2F" mask="url(#F)"/></g><g transform="matrix(-1 0 0 1 396.455 23.389)"><mask id="H" fill="#fff"><use xlink:href="#G"/></mask><path fill="#12577E" mask="url(#H)" d="M.187 7.825v14.652l13.69-7.326V.5z"/></g><g transform="matrix(-1 0 0 1 410.394 16.086)"><mask id="J" fill="#fff"><use xlink:href="#I"/></mask><path fill="#7FD5FF" mask="url(#J)" d="M14.126.475L.436 7.801l13.69 7.326 13.691-7.325z"/></g><g transform="matrix(-1 0 0 1 410.394 23.389)"><mask id="L" fill="#fff"><use xlink:href="#K"/></mask><path fill="#4DACDA" mask="url(#L)" d="M.435 15.151l13.691 7.326V7.825L.436.499z"/></g><path fill="#021F2F" d="M401.199 37.95l3.829-2.049v-4.098l-3.83 2.049z"/></g><g><path fill="url(#M)" fill-rule="nonzero" d="M14 39h2v90h-2z" transform="translate(537 168)"/><path d="M564.798 199.258l-11.899 6.87-11.9-6.87 11.9-6.87 11.9 6.87zm-11.899 9.169c.185 0 .369-.048.533-.144l14.034-8.102a1.067 1.067 0 000-1.847l-14.033-8.102c-.33-.19-.736-.19-1.067 0l-14.034 8.102a1.067 1.067 0 000 1.847l14.034 8.102c.165.096.349.144.533.144z" fill="#45B6EE"/><g transform="matrix(-1 0 0 1 553.09 176.171)"><mask id="O" fill="#fff"><use xlink:href="#N"/></mask><path fill="#003B8A" mask="url(#O)" d="M.191 8.653v16.205l14.034-8.102V.552z"/></g><g transform="matrix(-1 0 0 1 567.379 168.095)"><mask id="Q" fill="#fff"><use xlink:href="#P"/></mask><path fill="#005AFF" mask="url(#Q)" d="M14.48.526L.445 8.627l14.033 8.102 14.033-8.101z"/></g><g transform="matrix(-1 0 0 1 567.379 176.171)"><mask id="S" fill="#fff"><use xlink:href="#R"/></mask><path fill="#7FD5FF" mask="url(#S)" d="M.446 16.756l14.033 8.102V8.653L.446.552z"/></g><path fill="#021F2F" d="M557.954 192.275l3.924-2.266v-4.532l-3.924 2.266z"/></g><g><path fill="url(#T)" fill-rule="nonzero" d="M14 39h2v90h-2z" transform="matrix(-1 0 0 1 472 214)"/><path d="M444.202 245.258l11.899 6.87 11.9-6.87-11.9-6.87-11.9 6.87zm11.899 9.169a1.06 1.06 0 01-.533-.144l-14.034-8.102a1.067 1.067 0 010-1.847l14.033-8.102c.33-.19.736-.19 1.067 0l14.034 8.102a1.067 1.067 0 010 1.847l-14.034 8.102c-.165.096-.349.144-.533.144z" fill="#45B6EE"/><g transform="translate(455.91 222.171)"><mask id="V" fill="#fff"><use xlink:href="#U"/></mask><path fill="#003B8A" mask="url(#V)" d="M.191 8.653v16.205l14.034-8.102V.552z"/></g><g transform="translate(441.621 214.095)"><mask id="X" fill="#fff"><use xlink:href="#W"/></mask><path fill="#005AFF" mask="url(#X)" d="M14.48.526L.445 8.627l14.033 8.102 14.033-8.101z"/></g><g transform="translate(441.621 222.171)"><mask id="Z" fill="#fff"><use xlink:href="#Y"/></mask><path fill="#7FD5FF" mask="url(#Z)" d="M.446 16.756l14.033 8.102V8.653L.446.552z"/></g><path fill="#021F2F" d="M451.046 238.275l-3.924-2.266v-4.532l3.924 2.266z"/></g><g><path fill="url(#T)" fill-rule="nonzero" d="M14 39h2v90h-2z" transform="translate(306 214)"/><path d="M333.798 245.258l-11.899 6.87-11.9-6.87 11.9-6.87 11.9 6.87zm-11.899 9.169c.185 0 .369-.048.533-.144l14.034-8.102a1.067 1.067 0 000-1.847l-14.033-8.102c-.33-.19-.736-.19-1.067 0l-14.034 8.102a1.067 1.067 0 000 1.847l14.034 8.102c.165.096.349.144.533.144z" fill="#45B6EE"/><g transform="matrix(-1 0 0 1 322.09 222.171)"><mask id="ab" fill="#fff"><use xlink:href="#aa"/></mask><path fill="#003B8A" mask="url(#ab)" d="M.191 8.653v16.205l14.034-8.102V.552z"/></g><g transform="matrix(-1 0 0 1 336.379 214.095)"><mask id="ad" fill="#fff"><use xlink:href="#ac"/></mask><path fill="#005AFF" mask="url(#ad)" d="M14.48.526L.445 8.627l14.033 8.102 14.033-8.101z"/></g><g transform="matrix(-1 0 0 1 336.379 222.171)"><mask id="af" fill="#fff"><use xlink:href="#ae"/></mask><path fill="#7FD5FF" mask="url(#af)" d="M.446 16.756l14.033 8.102V8.653L.446.552z"/></g><path fill="#021F2F" d="M326.954 238.275l3.924-2.266v-4.532l-3.924 2.266z"/></g><g><path fill="url(#ag)" fill-rule="nonzero" d="M14 39h2v160h-2z" transform="translate(207 98)"/><path d="M234.798 129.258l-11.899 6.87-11.9-6.87 11.9-6.87 11.9 6.87zm-11.899 9.169c.185 0 .369-.048.533-.144l14.034-8.102a1.067 1.067 0 000-1.847l-14.033-8.102c-.33-.19-.736-.19-1.067 0l-14.034 8.102a1.067 1.067 0 000 1.847l14.034 8.102c.165.096.349.144.533.144z" fill="#45B6EE"/><g transform="matrix(-1 0 0 1 223.09 106.171)"><mask id="ai" fill="#fff"><use xlink:href="#ah"/></mask><path fill="#003B8A" mask="url(#ai)" d="M.191 8.653v16.205l14.034-8.102V.552z"/></g><g transform="matrix(-1 0 0 1 237.379 98.095)"><mask id="ak" fill="#fff"><use xlink:href="#aj"/></mask><path fill="#005AFF" mask="url(#ak)" d="M14.48.526L.445 8.627l14.033 8.102 14.033-8.101z"/></g><g transform="matrix(-1 0 0 1 237.379 106.171)"><mask id="am" fill="#fff"><use xlink:href="#al"/></mask><path fill="#7FD5FF" mask="url(#am)" d="M.446 16.756l14.033 8.102V8.653L.446.552z"/></g><path fill="#021F2F" d="M227.954 122.275l3.924-2.266v-4.532l-3.924 2.266z"/></g><g><path fill="url(#an)" fill-rule="nonzero" d="M15 39h1v127h-1z" transform="translate(419 97)"/><path d="M446.798 128.258l-11.899 6.87-11.9-6.87 11.9-6.87 11.9 6.87zm-11.899 9.169c.185 0 .369-.048.533-.144l14.034-8.102a1.067 1.067 0 000-1.847l-14.033-8.102c-.33-.19-.736-.19-1.067 0l-14.034 8.102a1.067 1.067 0 000 1.847l14.034 8.102c.165.096.349.144.533.144z" fill="#45B6EE"/><g transform="matrix(-1 0 0 1 435.09 105.171)"><mask id="ap" fill="#fff"><use xlink:href="#ao"/></mask><path fill="#003B8A" mask="url(#ap)" d="M.191 8.653v16.205l14.034-8.102V.552z"/></g><g transform="matrix(-1 0 0 1 449.379 97.095)"><mask id="ar" fill="#fff"><use xlink:href="#aq"/></mask><path fill="#005AFF" mask="url(#ar)" d="M14.48.526L.445 8.627l14.033 8.102 14.033-8.101z"/></g><g transform="matrix(-1 0 0 1 449.379 105.171)"><mask id="at" fill="#fff"><use xlink:href="#as"/></mask><path fill="#7FD5FF" mask="url(#at)" d="M.446 16.756l14.033 8.102V8.653L.446.552z"/></g><path fill="#021F2F" d="M439.954 121.275l3.924-2.266v-4.532l-3.924 2.266z"/></g><g><path fill="url(#an)" fill-rule="nonzero" d="M15 39h1v127h-1z" transform="matrix(-1 0 0 1 384 131)"/><path d="M356.202 162.258l11.899 6.87 11.9-6.87-11.9-6.87-11.9 6.87zm11.899 9.169a1.06 1.06 0 01-.533-.144l-14.034-8.102a1.067 1.067 0 010-1.847l14.033-8.102c.33-.19.736-.19 1.067 0l14.034 8.102a1.067 1.067 0 010 1.847l-14.034 8.102c-.165.096-.349.144-.533.144z" fill="#45B6EE"/><g transform="translate(367.91 139.171)"><mask id="av" fill="#fff"><use xlink:href="#au"/></mask><path fill="#003B8A" mask="url(#av)" d="M.191 8.653v16.205l14.034-8.102V.552z"/></g><g transform="translate(353.621 131.095)"><mask id="ax" fill="#fff"><use xlink:href="#aw"/></mask><path fill="#005AFF" mask="url(#ax)" d="M14.48.526L.445 8.627l14.033 8.102 14.033-8.101z"/></g><g transform="translate(353.621 139.171)"><mask id="az" fill="#fff"><use xlink:href="#ay"/></mask><path fill="#7FD5FF" mask="url(#az)" d="M.446 16.756l14.033 8.102V8.653L.446.552z"/></g><path fill="#021F2F" d="M363.046 155.275l-3.924-2.266v-4.532l3.924 2.266z"/></g><g><path fill="url(#u)" fill-rule="nonzero" transform="matrix(1 0 0 -1 376 430)" d="M14 38h1v100h-1z"/><g transform="matrix(-1 0 0 1 405 275.305)"><mask id="aB" fill="#fff"><use xlink:href="#aA"/></mask><path d="M3.123 9.19l11.61 6.703L26.342 9.19l-11.61-6.702L3.123 9.19zm11.61 8.946c-.18 0-.36-.047-.52-.14L.52 10.09a1.041 1.041 0 010-1.802L14.211.385a1.04 1.04 0 011.042 0l13.691 7.904a1.041 1.041 0 010 1.802l-13.69 7.905c-.162.093-.341.14-.521.14z" fill="#021F2F" mask="url(#aB)"/></g><g transform="matrix(-1 0 0 1 390.455 261.972)"><mask id="aD" fill="#fff"><use xlink:href="#aC"/></mask><path fill="#12577E" mask="url(#aD)" d="M.187 8.442v15.81l13.69-7.905V.538z"/></g><g transform="matrix(-1 0 0 1 404.394 254.093)"><mask id="aF" fill="#fff"><use xlink:href="#aE"/></mask><path fill="#7FD5FF" mask="url(#aF)" d="M14.126.513L.436 8.417l13.69 7.904 13.691-7.903z"/></g><g transform="matrix(-1 0 0 1 404.394 261.972)"><mask id="aH" fill="#fff"><use xlink:href="#aG"/></mask><path fill="#4DACDA" mask="url(#aH)" d="M.435 16.347l13.691 7.905V8.442L.436.538z"/></g><path fill="#021F2F" d="M395.199 277.683l3.829-2.21v-4.422l-3.83 2.21z"/></g></g><g><path d="M642.37 509.918c-1.242 1.594-4.06 2.408-5.99 1.96-1.42-.33-2.356-.586-3.432-.934-1.406-.454-3.543-.483-5.016-.572-1.77-.108-3.168.03-4.922-.236a18.199 18.199 0 01-4.455-1.283c-1.874-.811-5.072-4.714-2.73-6.19.175-.11.384-.146.585-.179 6.292-.964 14.414-.584 16.407-3.05l8.535-.434c-.256.013 1.385 7.868 1.52 8.503.078.351.154.712.12 1.069-.05.499-.312.948-.621 1.346" fill="#2D2979"/><path d="M637.291 460.013l3.523-2.974s2.238 5.848 2.185 7.946c-.054 2.098-1.5 33.296-1.5 33.296s-4.726 3.595-8.408.388c0 0-2.519-36.898-3.091-42.669l7.291 4.011" fill="#12577E"/><path d="M623.214 518.35c-1.405 1.473-4.335 2.022-6.249 1.393-1.408-.46-2.333-.803-3.392-1.25-1.384-.584-3.546-.813-5.028-1.04-1.784-.271-3.214-.268-4.97-.694a18.799 18.799 0 01-4.392-1.697c-1.828-.983-4.711-5.174-2.202-6.428.187-.094.403-.11.612-.123 6.46-.374 14.652.764 16.895-1.511l8.69.366c-.26-.01.683 7.976.764 8.623.047.359.09.722.024 1.075-.097.497-.403.92-.752 1.286" fill="#021F2F"/><path d="M621.814 466.052s2.238 5.921 2.185 8.048c-.05 2.124-1.496 33.717-1.496 33.717s-4.767 2.888-8.452-.361c0 0-2.479-36.612-3.051-42.456" fill="#021F2F"/><path d="M712.1 476.395l-41.013-23.314c-2.535-1.441-6.64-1.441-9.172 0l-41.016 23.314c-2.532 1.44-2.532 3.773 0 5.211l41.016 23.315c2.532 1.439 6.637 1.439 9.172 0l41.013-23.315c2.533-1.438 2.533-3.771 0-5.211" fill="#7B7B7B"/><path d="M666.5 452c1.66 0 3.32.36 4.586 1.08l41.014 23.315c2.533 1.438 2.533 3.774 0 5.212l-41.014 23.315c-1.266.72-2.926 1.078-4.587 1.078-1.659 0-3.32-.358-4.585-1.078L620.9 481.607c-2.533-1.438-2.533-3.774 0-5.212l41.014-23.315c1.266-.72 2.926-1.08 4.585-1.08m0 1.773c-1.4 0-2.741.307-3.685.844l-41.013 23.314c-.738.418-1 .838-1 1.07 0 .231.262.652 1 1.07l41.013 23.314c.942.535 2.286.842 3.685.842 1.4 0 2.743-.307 3.687-.842l41.013-23.314c.737-.418 1-.839 1-1.07 0-.232-.263-.652-1-1.07l-41.015-23.314c-.942-.537-2.286-.844-3.685-.844" fill="#1478FF"/><path d="M714 520.9c-.025 1.082-.727 1.927-1.882 2.618l-40.58 23.398c-1.172.676-2.665 1.056-4.538 1.084v-40.905c1.78-.012 3.29-.377 4.539-1.08l40.58-23.4c1.01-.577 1.881-1.437 1.881-2.615v40.9z" fill="#EFEFEF"/><path d="M620 520.9c.023 1.082.725 1.927 1.88 2.618l40.583 23.398c1.169.676 2.664 1.056 4.537 1.084v-40.905c-1.78-.012-3.29-.377-4.537-1.08l-40.583-23.4c-1.01-.577-1.88-1.437-1.88-2.615v40.9z" fill="#DADADA"/><path d="M640.327 447.441c4.214 1.538 32.673 12.24 32.673 12.24s-1.125 20.231-7.203 16.961L636.47 459.68l-7.429-4.078c-.654-6.598 6.659-9.85 11.286-8.16" fill="#12577E"/><path d="M629.565 413a.23.23 0 01.123.037v-.002l.422.242-.281.118 3.5 20.71c.04.238-.134.577-.364.709l-27.8 16.01.024-.007-.07.385-.414-.239c-.075-.031-.129-.103-.147-.213l-3.528-20.874a.363.363 0 01-.005-.063v-.02a.814.814 0 01.368-.626l27.97-16.107a.409.409 0 01.19-.06h.012z"/><path d="M629.565 413a.23.23 0 01.123.037v-.002l.422.242-.281.118 3.5 20.71c.04.238-.134.577-.364.709l-27.8 16.01.024-.007-.07.385-.414-.239c-.075-.031-.129-.103-.147-.213l-3.528-20.874a.363.363 0 01-.005-.063v-.02a.814.814 0 01.368-.626l27.97-16.107a.409.409 0 01.19-.06h.012z" fill="#DADADA"/><path d="M601.549 429.733l5.023 20.28-1.406.81.023-.006-.07.385-.414-.239c-.075-.031-.129-.103-.147-.213l-3.528-20.874a.626.626 0 01.06-.345l.459.202z"/><path d="M601.549 429.733l5.023 20.28-1.406.81.023-.006-.07.385-.414-.239c-.075-.031-.129-.103-.147-.213l-3.528-20.874a.626.626 0 01.06-.345l.459.202z" fill="#7B7B7B"/><path d="M633.404 435.065l-27.969 16.107c-.216.125-.401.053-.439-.17l-3.527-20.875c-.04-.237.133-.577.363-.709l27.97-16.107c.215-.125.4-.053.438.17l3.527 20.875c.04.238-.133.577-.363.709" fill="#021F2F"/><path fill="#021F2F" d="M629.435 414.644l-26.96 15.525 3.344 19.66 26.942-15.515z"/><path d="M634.154 436.929l15.305 8.814 1.526-.795-.555 1.6h-.002a.485.485 0 01-.227.24l-27.012 15.556c-.296.17-.743.188-1 .041l-16.119-9.283a.33.33 0 01-.156-.173l-.002.002-.559-1.452s1.151.553 1.404.694l26.398-15.203c.161-.093.368-.14.565-.14.163 0 .318.032.434.099"/><path d="M634.154 436.929l15.305 8.814 1.526-.795-.555 1.6h-.002a.485.485 0 01-.227.24l-27.012 15.556c-.296.17-.743.188-1 .041l-16.119-9.283a.33.33 0 01-.156-.173l-.002.002-.559-1.452s1.151.553 1.404.694l26.398-15.203c.161-.093.368-.14.565-.14.163 0 .318.032.434.099" fill="#9D9D9D"/><path d="M634.302 435.095l16.52 9.513c.119.069.177.16.178.254v.005c-.001.115-.086.236-.251.331l-27.684 15.944c-.303.175-.762.193-1.024.042l-16.52-9.514c-.263-.151-.23-.415.073-.59l27.684-15.943c.166-.095.379-.144.58-.144.167 0 .325.033.444.102"/><path d="M634.302 435.095l16.52 9.513c.119.069.177.16.178.254v.005c-.001.115-.086.236-.251.331l-27.684 15.944c-.303.175-.762.193-1.024.042l-16.52-9.514c-.263-.151-.23-.415.073-.59l27.684-15.943c.166-.095.379-.144.58-.144.167 0 .325.033.444.102" fill="#EFEFEF"/><path d="M650.75 445.04l-27.685 15.942c-.303.175-.762.194-1.024.043l-16.52-9.514a.344.344 0 01-.161-.178c-.042.124.008.25.16.337l16.52 9.514c.263.151.722.132 1.025-.042l27.684-15.944c.204-.117.282-.274.234-.411a.49.49 0 01-.234.252" fill="#FFF"/><path d="M614.714 457.693v-.303c0-.029.018-.042.04-.03l1.07.618c.022.012.04.045.04.074v.303c0 .028-.018.042-.04.029l-1.07-.617a.093.093 0 01-.04-.074M616.316 458.615v-.303c0-.028.017-.041.039-.03l1.07.618c.022.012.04.045.04.074v.303c0 .028-.018.042-.04.03l-1.07-.617c-.022-.013-.04-.046-.04-.075M609.828 450.78l23.005-13.25a.496.496 0 01.496 0l8.192 4.728a.176.176 0 010 .305l-22.995 13.243a.497.497 0 01-.495 0l-8.203-4.722a.176.176 0 010-.305" fill="#021F2F"/><path d="M609.828 451.084l.082.047 22.923-13.201a.498.498 0 01.496 0l8.11 4.68.082-.047a.176.176 0 000-.305l-8.192-4.728a.498.498 0 00-.496 0l-23.005 13.25a.176.176 0 000 .304" fill="#7B7B7B"/><path fill="#7B7B7B" d="M632.023 439.836L612.55 451.05l-.842-.538 19.423-11.185zM633.288 441.617l-17.68 10.182-.606-.675 17.398-10.02zM637.545 440.8l-22.07 12.709-.888-.512 22.07-12.71zM638.963 441.616l-22.069 12.71-.888-.512 22.069-12.71zM640.382 442.434l-22.069 12.71-.888-.513 22.069-12.71z"/><path fill="#1478FF" d="M612.756 450.932l-.889.512-.888-.512.888-.512z"/><path fill="#7B7B7B" d="M615.89 451.636l-1.844 1.062-.889-.512 1.844-1.062z"/><path d="M635.68 447.465l4.243 2.442c.242.14.242.366 0 .506l-6.204 3.572a.972.972 0 01-.878 0l-4.242-2.443c-.242-.14-.242-.366 0-.505l6.203-3.572a.898.898 0 01.44-.105c.159 0 .317.035.439.105"/><path d="M635.68 447.465l4.243 2.442c.242.14.242.366 0 .506l-6.204 3.572a.972.972 0 01-.878 0l-4.242-2.443c-.242-.14-.242-.366 0-.505l6.203-3.572a.898.898 0 01.44-.105c.159 0 .317.035.439.105" fill="#F8FAFB"/><path d="M628.6 451.244l6.203-3.573a.971.971 0 01.877 0l4.243 2.443a.38.38 0 01.152.15c.064-.123.015-.26-.152-.357l-4.243-2.443a.973.973 0 00-.877 0l-6.204 3.573c-.167.096-.216.234-.152.356a.38.38 0 01.152-.15" fill="#7B7B7B"/><path fill="#FF3C5C" d="M633.947 438.728l-.888.511-.889-.511.889-.512z"/><path fill="#7B7B7B" d="M636.126 439.982l-1.845 1.062-.888-.511 1.844-1.062z"/><path fill="#FFF" d="M611.657 443.714l.073.415 2.492-1.38-.073-.415z"/><path fill="#1EDBFF" d="M614.478 441.878l1.46-.826.078.456-1.46.826zM618.068 440.096l.954-.583.071.444-.954.582z"/><path fill="#FFF" d="M617.298 440.441l.422-.158.091.354-.421.159z"/><path fill="#1478FF" d="M616.273 440.885l.687-.346.082.424-.687.345z"/><path fill="#1EDBFF" d="M613.709 440.352l.955-.582.07.443-.954.583z"/><path fill="#02E779" d="M611.401 441.647l1.976-1.108.075.43-1.976 1.109z"/><path fill="#1EDBFF" d="M613.965 434.724l1.976-1.108.075.43-1.976 1.109z"/><path fill="#FF3C5C" d="M612.94 435.243l.686-.345.083.424-.687.345z"/><path fill="#1EDBFF" d="M614.478 436.518l1.976-1.107.075.43-1.976 1.108z"/><path fill="#02E779" d="M613.452 437.295l.687-.346.083.424-.688.346z"/><path fill="#1EDBFF" d="M609.093 427.792l.071.44 3.52-2.126-.072-.439z"/><path fill="#FFF" d="M613.965 425.365l-.948.559-.077-.467.948-.559z"/><path fill="#1EDBFF" d="M620.119 424.824l-3.519 2.125-.07-.438 3.518-2.126zM621.657 424.083l-.948.559-.077-.467.948-.559z"/><path fill="#FF3C5C" d="M609.093 428.814l.072.443.954-.582-.07-.444z"/><path fill="#1EDBFF" d="M616.016 427.393l-.954.582-.071-.444.955-.582zM612.427 427.38l-1.976 1.108-.076-.43 1.977-1.109z"/><path fill="#1478FF" d="M613.452 426.604l-.686.345-.083-.424.687-.345z"/><path fill="#1EDBFF" d="M615.76 425.33l-1.976 1.107-.075-.43 1.976-1.109zM616.786 424.81l-.687.345-.083-.425.688-.345zM616.016 426.367l-.954.582-.071-.443.954-.582zM618.324 425.073l-1.976 1.107-.075-.43 1.976-1.108zM619.35 424.296l-.687.346-.082-.424.686-.346z"/><path fill="#02E779" d="M609.35 429.609l.072.417 1.98-1.12-.073-.418z"/><path fill="#1EDBFF" d="M613.196 427.898l-1.465.846-.074-.436 1.465-.846zM614.478 427.136l-.955.583-.07-.444.954-.582zM623.965 422.752l-1.979 1.12-.072-.417 1.98-1.121zM626.016 421.744l-1.465.846-.073-.436 1.465-.846z"/><path fill="#FFF" d="M627.227 420.54l-.954.581.07.444.955-.582zM623.452 435.763l1.98-1.121.072.417-1.98 1.121z"/><path fill="#1EDBFF" d="M621.401 436.77l1.465-.846.074.435-1.465.847z"/><path fill="#1478FF" d="M620.119 437.788l.954-.582.072.443-.955.582z"/><path fill="#1EDBFF" d="M622.683 437.301l1.98-1.12.071.416-1.98 1.122z"/><path fill="#1478FF" d="M620.888 438.308l1.465-.846.074.436-1.465.846z"/><path fill="#1EDBFF" d="M619.35 439.07l.955-.582.07.443-.954.582zM614.478 435.52l.695-.365.074.403-.694.366zM613.196 436.226l.948-.559.078.467-.949.559zM611.657 429.931l-1.979 1.12-.072-.417 1.98-1.12zM613.452 428.924l-1.465.846-.073-.436 1.465-.846z"/><path fill="#1478FF" d="M614.734 428.162l-.954.582-.071-.443.955-.582z"/><path fill="#FF3C5C" d="M610.375 431.712l-.694.366-.075-.404.694-.366z"/><path fill="#FFF" d="M611.657 431.006l-.948.559-.077-.467.948-.559z"/><path fill="#1EDBFF" d="M613.452 429.951l-1.464.845-.074-.438 1.464-.845z"/><path fill="#1478FF" d="M615.504 438.084l.694-.365.075.403-.695.366z"/><path fill="#1EDBFF" d="M614.222 439.047l.948-.56.077.468-.948.558zM612.427 440.102l1.464-.845.074.438-1.464.844zM616.53 436.512l1.464-.845.074.438-1.465.844zM614.222 437.804l1.977-1.111.074.427-1.977 1.111z"/><path fill="#02E779" d="M613.196 438.577l.687-.346.082.425-.687.345z"/><path fill="#FFF" d="M612.17 439.09l.687-.346.083.424-.688.345z"/><path fill="#1EDBFF" d="M612.17 433.441l1.976-1.107.076.43-1.977 1.108z"/><path fill="#FFF" d="M611.145 433.961l.687-.345.082.424-.687.345z"/><path fill="#1478FF" d="M612.427 432.187l.694-.366.075.404-.694.365zM614.734 432.956l.695-.366.075.404-.695.366z"/><path fill="#1EDBFF" d="M615.76 432.443l1.718-.878.077.404-1.718.878zM617.811 431.374l.954-.578.072.446-.954.58z"/><path fill="#02E779" d="M611.145 432.893l.948-.559.077.467-.948.559z"/><path fill="#FF3C5C" d="M611.145 431.93l.694-.365.075.403-.695.366z"/><path fill="#FFF" d="M609.863 432.637l.948-.56.077.467-.948.56z"/><path fill="#1478FF" d="M613.709 433.705l.686-.345.083.423-.687.346z"/><path fill="#1EDBFF" d="M612.94 434.218l.687-.346.082.425-.687.345zM617.555 439.106l1.981-1.131.07.407-1.982 1.131zM615.247 440.368l1.977-1.11.074.426-1.977 1.112z"/><path fill="#FFF" d="M614.222 441.14l.687-.344.082.424-.687.345z"/><path fill="#FF3C5C" d="M613.196 441.654l.687-.346.082.424-.687.346z"/><path fill="#1EDBFF" d="M612.872 441.821l-1.215.817.068.465 1.215-.817z"/><path d="M611.04 465.653c-.65-6.638 6.63-9.908 11.239-8.209 4.198 1.548 32.54 12.307 32.54 12.307l28.134-2.4c.682 10.65-6.138 15.214-13.99 18.703-7.855 3.493-15.264 4.047-21.32.758l-29.206-17.06 3.575-3.038" fill="#021F2F"/><path d="M653.182 397.755c.617-6.032 4.71-10.783 10.925-10.755 6.61.03 11.944 5.39 11.916 11.973-.02 3.852-1.883 7.213-4.738 9.379 0 0-.163.774-.371 1.503 0 0 .637 3.184.928 3.715.375.68 2.176.02 4.586-.336 1.655-.245 2.032 2.827.994 5.697-.93 2.57-4.987 5.286-8.77 5.953-3.782.667-9.912-1.685-7.732-3.338 2.182-1.655 2.21-2.279 1.87-3.419-.267-.884-.878-2.428-1.136-3.079-1.346.293-2.475.436-3.052.382-2.464-.223-3.216-1.465-4.03-4.256-1.718-5.928-1.747-10.435-1.39-13.42" fill="#DADADA"/><path d="M660.979 413.459c1.66-1.107 1.291-3.551 1.582-5.459l2.787 2.238 3.812.311 2.633-1.023c-.06.224-.124.467-.2.712 0 0 .669 3.166.973 3.693.392.675 2.277.02 4.795-.334 1.699-.24 2.102 2.697 1.092 5.5l-1.972 2.65c-.501.44-1.053.864-1.672 1.253l-13.417-1.329c2.012-1.499 2.05-2.12 1.706-3.21-.28-.879-.916-2.414-1.188-3.06-1.408.29-2.588.433-3.193.38-.692-.06-1.248-.201-1.717-.416 1.154-.455 2.924-1.203 3.979-1.906" fill="#9D9D9D"/><path d="M651.73 385.645c3.902 1.19 18.376-4.242 20.986 4.154 0 0 2.863 1.018 3.744 5.123.88 4.103.88 7.134-1.497 11.237-2.378 4.104-3.163 5.973-3.163 5.973s-1.715 1.4-4.094 1.819c-2.378.413-4.041-1.875-4.706-3.21-.668-1.337-.714-2.481-.714-3.546.403.471 2.098.26 2.642-1.48.522-1.667.78-3.175-.357-5.095-1.134-1.922-3.691-1.301-4.198.21-.446 1.324-.163 4.144-.163 4.144s-1.758-.191-2.11-1.91c-.247-1.217-.488-3.003-.53-4.16-.036-1.048-.267-2.127-1.059-2.838-1.099-.985-.703-2.566-.703-2.566s-3.429-.184-5.248-3.394c-1.817-3.214-2.73-5.65 1.17-4.46" fill="#021F2F"/><path d="M673.19 413.652c.262.866-.481 2.276-3.6 3.918-4.221 2.218-6.735 1.929-6.735 1.929s-5.005 2.67-7.182 4.168c-2.741 1.885-3.954 7.346-4.323 16.56-.326 8.156-.426 21.097-.292 27.954a8.308 8.308 0 004.77 7.356c1.95.923 4.397 1.641 7.088 1.424 6.55-.531 18.57-6.42 21.246-10.83-.075-9.348-.873-15.027-.541-20.613.588-9.85 2.775-17.66.018-25.573-2.406-6.89-5.187-7.216-7.872-6.844-1.503.207-2.576.55-2.576.55" fill="#1478FF"/><path d="M671.535 413.06c.683-.289 1.8.532 2.364 1.004 0 0 .953 2.738-2.987 5.305-5.728 3.734-9.048 2.568-9.896 2.01-.06-.036.01-3.263.974-3.571 0 0 1.552.6 5.497-1.006 3.691-1.5 4.048-3.742 4.048-3.742" fill="#021F2F"/><path d="M620.717 451.29c1.535 1.182 2.188 1.644 3.926 2.113 1.886.507 6.182 7.732.58 7.734-1.526 0-2.66.38-5.569.726-2.911.346-6.354.04-8.6-.95-2.245-.991-2.901-1.706-2.901-2.248 0-.684.606-.908 1.682-.573 1.08.334 2.809 1.067 5.236 1.03 0 0-2.395-.61-3.792-1.104-1.4-.495-2.684-1.188-3.521-1.792-1.035-.747-1.012-2.65.081-2.342 1.103.312 1.86.848 3.944 1.549 1.896.638 3.406.726 3.406.726s-2.22-.88-3.94-1.97c-1.716-1.089-2.202-1.895-2.494-2.442-.292-.548.062-1.631 1.369-1.066 1.176.507 2.444 1.657 4.831 2.275 1.737.449 3.024.525 2.863.202-.163-.323-1.2-.514-2.366-1.561-1.115-1.001-1.614-2.652-1.008-3.236.609-.584.504-.463 1.807.387 1.306.85 2.723 1.196 4.466 2.543z" fill="#DADADA"/><path d="M657.048 424.014c1.847.145 4.063 1.465 3.948 9.76-.116 8.296-5.587 17.027-7.592 19.194-2.003 2.171-5.206 5.208-11.464 6.834-6.257 1.628-17.374 1.125-17.374 1.125s-1.274-4.375 0-7.414c0 0 8.687-.165 13.651-1.627 4.965-1.466 6.852-3.526 9.01-6.67 2.16-3.146 3.993-13.068 4.48-15.346.484-2.278 1.889-6.127 5.341-5.856" fill="#021F2F"/></g><g><path d="M132.63 509.918c1.242 1.594 4.06 2.408 5.99 1.96 1.42-.33 2.356-.586 3.432-.934 1.406-.454 3.543-.483 5.016-.572 1.77-.108 3.168.03 4.922-.236a18.199 18.199 0 004.455-1.283c1.874-.811 5.072-4.714 2.73-6.19-.175-.11-.384-.146-.585-.179-6.292-.964-14.414-.584-16.407-3.05l-8.535-.434c.256.013-1.385 7.868-1.52 8.503-.078.351-.154.712-.12 1.069.05.499.312.948.621 1.346" fill="#2D2979"/><path d="M137.709 460.013l-3.523-2.974s-2.238 5.848-2.185 7.946c.054 2.098 1.5 33.296 1.5 33.296s4.726 3.595 8.408.388c0 0 2.519-36.898 3.091-42.669l-7.291 4.011" fill="#12577E"/><path d="M151.786 518.35c1.405 1.473 4.335 2.022 6.249 1.393 1.408-.46 2.333-.803 3.392-1.25 1.384-.584 3.546-.813 5.028-1.04 1.784-.271 3.214-.268 4.97-.694a18.799 18.799 0 004.392-1.697c1.828-.983 4.711-5.174 2.202-6.428-.187-.094-.403-.11-.612-.123-6.46-.374-14.652.764-16.895-1.511l-8.69.366c.26-.01-.683 7.976-.764 8.623-.047.359-.09.722-.024 1.075.097.497.403.92.752 1.286" fill="#021F2F"/><path d="M153.186 466.052s-2.238 5.921-2.185 8.048c.05 2.124 1.496 33.717 1.496 33.717s4.767 2.888 8.452-.361c0 0 2.479-36.612 3.051-42.456" fill="#021F2F"/><path d="M62.9 476.395l41.013-23.314c2.535-1.441 6.64-1.441 9.172 0l41.016 23.314c2.532 1.44 2.532 3.773 0 5.211l-41.016 23.315c-2.532 1.439-6.637 1.439-9.172 0L62.9 481.606c-2.533-1.438-2.533-3.771 0-5.211" fill="#7B7B7B"/><path d="M108.5 452c-1.66 0-3.32.36-4.586 1.08L62.9 476.395c-2.533 1.438-2.533 3.774 0 5.212l41.014 23.315c1.266.72 2.926 1.078 4.587 1.078 1.659 0 3.32-.358 4.585-1.078l41.014-23.315c2.533-1.438 2.533-3.774 0-5.212l-41.014-23.315c-1.266-.72-2.926-1.08-4.585-1.08m0 1.773c1.4 0 2.741.307 3.685.844l41.013 23.314c.738.418 1 .838 1 1.07 0 .231-.262.652-1 1.07l-41.013 23.314c-.942.535-2.286.842-3.685.842-1.4 0-2.743-.307-3.687-.842L63.801 480.07c-.737-.418-1-.839-1-1.07 0-.232.263-.652 1-1.07l41.015-23.314c.942-.537 2.286-.844 3.685-.844" fill="#1478FF"/><path d="M61 520.9c.025 1.082.727 1.927 1.882 2.618l40.58 23.398c1.172.676 2.665 1.056 4.538 1.084v-40.905c-1.78-.012-3.29-.377-4.539-1.08l-40.58-23.4C61.872 482.037 61 481.177 61 480v40.9z" fill="#EFEFEF"/><path d="M155 520.9c-.023 1.082-.725 1.927-1.88 2.618l-40.583 23.398c-1.169.676-2.664 1.056-4.537 1.084v-40.905c1.78-.012 3.29-.377 4.537-1.08l40.583-23.4c1.01-.577 1.88-1.437 1.88-2.615v40.9z" fill="#DADADA"/><path d="M134.673 447.441c-4.214 1.538-32.673 12.24-32.673 12.24s1.125 20.231 7.203 16.961l29.327-16.962 7.429-4.078c.654-6.598-6.659-9.85-11.286-8.16" fill="#12577E"/><path d="M145.435 413a.23.23 0 00-.123.037v-.002l-.422.242.281.118-3.5 20.71c-.04.238.134.577.364.709l27.8 16.01-.024-.007.07.385.414-.239c.075-.031.129-.103.147-.213l3.528-20.874a.363.363 0 00.005-.063v-.02a.814.814 0 00-.368-.626l-27.97-16.107a.409.409 0 00-.19-.06h-.012z"/><path d="M145.435 413a.23.23 0 00-.123.037v-.002l-.422.242.281.118-3.5 20.71c-.04.238.134.577.364.709l27.8 16.01-.024-.007.07.385.414-.239c.075-.031.129-.103.147-.213l3.528-20.874a.363.363 0 00.005-.063v-.02a.814.814 0 00-.368-.626l-27.97-16.107a.409.409 0 00-.19-.06h-.012z" fill="#DADADA"/><path d="M173.451 429.733l-5.023 20.28 1.406.81-.023-.006.07.385.414-.239c.075-.031.129-.103.147-.213l3.528-20.874a.626.626 0 00-.06-.345l-.459.202z"/><path d="M173.451 429.733l-5.023 20.28 1.406.81-.023-.006.07.385.414-.239c.075-.031.129-.103.147-.213l3.528-20.874a.626.626 0 00-.06-.345l-.459.202z" fill="#7B7B7B"/><path d="M141.596 435.065l27.969 16.107c.216.125.401.053.439-.17l3.527-20.875c.04-.237-.133-.577-.363-.709l-27.97-16.107c-.215-.125-.4-.053-.438.17l-3.527 20.875c-.04.238.133.577.363.709" fill="#021F2F"/><path fill="#021F2F" d="M145.565 414.644l26.96 15.525-3.344 19.66-26.942-15.515z"/><path d="M140.846 436.929l-15.305 8.814-1.526-.795.555 1.6h.002c.03.085.105.17.227.24l27.012 15.556c.296.17.743.188 1 .041l16.119-9.283a.33.33 0 00.156-.173l.002.002.559-1.452s-1.151.553-1.404.694l-26.398-15.203a1.161 1.161 0 00-.565-.14.886.886 0 00-.434.099"/><path d="M140.846 436.929l-15.305 8.814-1.526-.795.555 1.6h.002c.03.085.105.17.227.24l27.012 15.556c.296.17.743.188 1 .041l16.119-9.283a.33.33 0 00.156-.173l.002.002.559-1.452s-1.151.553-1.404.694l-26.398-15.203a1.161 1.161 0 00-.565-.14.886.886 0 00-.434.099" fill="#9D9D9D"/><path d="M140.698 435.095l-16.52 9.513c-.119.069-.177.16-.178.254v.005c.001.115.086.236.251.331l27.684 15.944c.303.175.762.193 1.024.042l16.52-9.514c.263-.151.23-.415-.073-.59l-27.684-15.943a1.195 1.195 0 00-.58-.144.907.907 0 00-.444.102"/><path d="M140.698 435.095l-16.52 9.513c-.119.069-.177.16-.178.254v.005c.001.115.086.236.251.331l27.684 15.944c.303.175.762.193 1.024.042l16.52-9.514c.263-.151.23-.415-.073-.59l-27.684-15.943a1.195 1.195 0 00-.58-.144.907.907 0 00-.444.102" fill="#EFEFEF"/><path d="M124.25 445.04l27.685 15.942c.303.175.762.194 1.024.043l16.52-9.514a.344.344 0 00.161-.178c.042.124-.008.25-.16.337l-16.52 9.514c-.263.151-.722.132-1.025-.042l-27.684-15.944c-.204-.117-.282-.274-.234-.411a.49.49 0 00.234.252" fill="#FFF"/><path d="M160.286 457.693v-.303c0-.029-.018-.042-.04-.03l-1.07.618c-.022.012-.04.045-.04.074v.303c0 .028.018.042.04.029l1.07-.617a.093.093 0 00.04-.074M158.684 458.615v-.303c0-.028-.017-.041-.039-.03l-1.07.618c-.022.012-.04.045-.04.074v.303c0 .028.018.042.04.03l1.07-.617c.022-.013.04-.046.04-.075M165.172 450.78l-23.005-13.25a.496.496 0 00-.496 0l-8.192 4.728a.176.176 0 000 .305l22.995 13.243a.497.497 0 00.495 0l8.203-4.722a.176.176 0 000-.305" fill="#021F2F"/><path d="M165.172 451.084l-.082.047-22.923-13.201a.498.498 0 00-.496 0l-8.11 4.68-.082-.047a.176.176 0 010-.305l8.192-4.728a.498.498 0 01.496 0l23.005 13.25a.176.176 0 010 .304" fill="#7B7B7B"/><path fill="#7B7B7B" d="M142.977 439.836l19.473 11.214.842-.538-19.423-11.185zM141.712 441.617l17.68 10.182.606-.675-17.398-10.02zM137.455 440.8l22.07 12.709.888-.512-22.07-12.71zM136.037 441.616l22.069 12.71.888-.512-22.069-12.71zM134.618 442.434l22.069 12.71.888-.513-22.069-12.71z"/><path fill="#1478FF" d="M162.244 450.932l.889.512.888-.512-.888-.512z"/><path fill="#7B7B7B" d="M159.11 451.636l1.844 1.062.889-.512-1.844-1.062z"/><path d="M139.32 447.465l-4.243 2.442c-.242.14-.242.366 0 .506l6.204 3.572c.242.14.635.14.878 0l4.242-2.443c.242-.14.242-.366 0-.505l-6.203-3.572a.898.898 0 00-.44-.105.898.898 0 00-.439.105"/><path d="M139.32 447.465l-4.243 2.442c-.242.14-.242.366 0 .506l6.204 3.572c.242.14.635.14.878 0l4.242-2.443c.242-.14.242-.366 0-.505l-6.203-3.572a.898.898 0 00-.44-.105.898.898 0 00-.439.105" fill="#F8FAFB"/><path d="M146.4 451.244l-6.203-3.573a.971.971 0 00-.877 0l-4.243 2.443a.38.38 0 00-.152.15c-.064-.123-.015-.26.152-.357l4.243-2.443a.973.973 0 01.877 0l6.204 3.573c.167.096.216.234.152.356a.38.38 0 00-.152-.15" fill="#7B7B7B"/><path fill="#FF3C5C" d="M141.053 438.728l.888.511.889-.511-.889-.512z"/><path fill="#7B7B7B" d="M138.874 439.982l1.845 1.062.888-.511-1.844-1.062z"/><path fill="#FFF" d="M163.343 443.714l-.073.415-2.492-1.38.073-.415z"/><path fill="#1EDBFF" d="M160.522 441.878l-1.46-.826-.078.456 1.46.826zM156.932 440.096l-.954-.583-.071.444.954.582z"/><path fill="#FFF" d="M157.702 440.441l-.422-.158-.091.354.421.159z"/><path fill="#1478FF" d="M158.727 440.885l-.687-.346-.082.424.687.345z"/><path fill="#1EDBFF" d="M161.291 440.352l-.955-.582-.07.443.954.583z"/><path fill="#02E779" d="M163.599 441.647l-1.976-1.108-.075.43 1.976 1.109z"/><path fill="#1EDBFF" d="M161.035 434.724l-1.976-1.108-.075.43 1.976 1.109z"/><path fill="#FF3C5C" d="M162.06 435.243l-.686-.345-.083.424.687.345z"/><path fill="#1EDBFF" d="M160.522 436.518l-1.976-1.107-.075.43 1.976 1.108z"/><path fill="#02E779" d="M161.548 437.295l-.687-.346-.083.424.688.346z"/><path fill="#1EDBFF" d="M165.907 427.792l-.071.44-3.52-2.126.072-.439z"/><path fill="#FFF" d="M161.035 425.365l.948.559.077-.467-.948-.559z"/><path fill="#1EDBFF" d="M154.881 424.824l3.519 2.125.07-.438-3.518-2.126zM153.343 424.083l.948.559.077-.467-.948-.559z"/><path fill="#FF3C5C" d="M165.907 428.814l-.072.443-.954-.582.07-.444z"/><path fill="#1EDBFF" d="M158.984 427.393l.954.582.071-.444-.955-.582zM162.573 427.38l1.976 1.108.076-.43-1.977-1.109z"/><path fill="#1478FF" d="M161.548 426.604l.686.345.083-.424-.687-.345z"/><path fill="#1EDBFF" d="M159.24 425.33l1.976 1.107.075-.43-1.976-1.109zM158.214 424.81l.687.345.083-.425-.688-.345zM158.984 426.367l.954.582.071-.443-.954-.582zM156.676 425.073l1.976 1.107.075-.43-1.976-1.108zM155.65 424.296l.687.346.082-.424-.686-.346z"/><path fill="#02E779" d="M165.65 429.609l-.072.417-1.98-1.12.073-.418z"/><path fill="#1EDBFF" d="M161.804 427.898l1.465.846.074-.436-1.465-.846zM160.522 427.136l.955.583.07-.444-.954-.582zM151.035 422.752l1.979 1.12.072-.417-1.98-1.121zM148.984 421.744l1.465.846.073-.436-1.465-.846z"/><path fill="#FFF" d="M147.773 420.54l.954.581-.07.444-.955-.582zM151.548 435.763l-1.98-1.121-.072.417 1.98 1.121z"/><path fill="#1EDBFF" d="M153.599 436.77l-1.465-.846-.074.435 1.465.847z"/><path fill="#1478FF" d="M154.881 437.788l-.954-.582-.072.443.955.582z"/><path fill="#1EDBFF" d="M152.317 437.301l-1.98-1.12-.071.416 1.98 1.122z"/><path fill="#1478FF" d="M154.112 438.308l-1.465-.846-.074.436 1.465.846z"/><path fill="#1EDBFF" d="M155.65 439.07l-.955-.582-.07.443.954.582zM160.522 435.52l-.695-.365-.074.403.694.366zM161.804 436.226l-.948-.559-.078.467.949.559zM163.343 429.931l1.979 1.12.072-.417-1.98-1.12zM161.548 428.924l1.465.846.073-.436-1.465-.846z"/><path fill="#1478FF" d="M160.266 428.162l.954.582.071-.443-.955-.582z"/><path fill="#FF3C5C" d="M164.625 431.712l.694.366.075-.404-.694-.366z"/><path fill="#FFF" d="M163.343 431.006l.948.559.077-.467-.948-.559z"/><path fill="#1EDBFF" d="M161.548 429.951l1.464.845.074-.438-1.464-.845z"/><path fill="#1478FF" d="M159.496 438.084l-.694-.365-.075.403.695.366z"/><path fill="#1EDBFF" d="M160.778 439.047l-.948-.56-.077.468.948.558zM162.573 440.102l-1.464-.845-.074.438 1.464.844zM158.47 436.512l-1.464-.845-.074.438 1.465.844zM160.778 437.804l-1.977-1.111-.074.427 1.977 1.111z"/><path fill="#02E779" d="M161.804 438.577l-.687-.346-.082.425.687.345z"/><path fill="#FFF" d="M162.83 439.09l-.687-.346-.083.424.688.345z"/><path fill="#1EDBFF" d="M162.83 433.441l-1.976-1.107-.076.43 1.977 1.108z"/><path fill="#FFF" d="M163.855 433.961l-.687-.345-.082.424.687.345z"/><path fill="#1478FF" d="M162.573 432.187l-.694-.366-.075.404.694.365zM160.266 432.956l-.695-.366-.075.404.695.366z"/><path fill="#1EDBFF" d="M159.24 432.443l-1.718-.878-.077.404 1.718.878zM157.189 431.374l-.954-.578-.072.446.954.58z"/><path fill="#02E779" d="M163.855 432.893l-.948-.559-.077.467.948.559z"/><path fill="#FF3C5C" d="M163.855 431.93l-.694-.365-.075.403.695.366z"/><path fill="#FFF" d="M165.137 432.637l-.948-.56-.077.467.948.56z"/><path fill="#1478FF" d="M161.291 433.705l-.686-.345-.083.423.687.346z"/><path fill="#1EDBFF" d="M162.06 434.218l-.687-.346-.082.425.687.345zM157.445 439.106l-1.981-1.131-.07.407 1.982 1.131zM159.753 440.368l-1.977-1.11-.074.426 1.977 1.112z"/><path fill="#FFF" d="M160.778 441.14l-.687-.344-.082.424.687.345z"/><path fill="#FF3C5C" d="M161.804 441.654l-.687-.346-.082.424.687.346z"/><path fill="#1EDBFF" d="M162.128 441.821l1.215.817-.068.465-1.215-.817z"/><path d="M163.96 465.653c.65-6.638-6.63-9.908-11.239-8.209-4.198 1.548-32.54 12.307-32.54 12.307l-28.134-2.4c-.682 10.65 6.138 15.214 13.99 18.703 7.855 3.493 15.264 4.047 21.32.758l29.206-17.06-3.575-3.038" fill="#021F2F"/><path d="M121.818 397.755c-.617-6.032-4.71-10.783-10.925-10.755-6.61.03-11.944 5.39-11.916 11.973.02 3.852 1.883 7.213 4.738 9.379 0 0 .163.774.371 1.503 0 0-.637 3.184-.928 3.715-.375.68-2.176.02-4.586-.336-1.655-.245-2.032 2.827-.994 5.697.93 2.57 4.987 5.286 8.77 5.953 3.782.667 9.912-1.685 7.732-3.338-2.182-1.655-2.21-2.279-1.87-3.419.267-.884.878-2.428 1.136-3.079 1.346.293 2.475.436 3.052.382 2.464-.223 3.216-1.465 4.03-4.256 1.718-5.928 1.747-10.435 1.39-13.42" fill="#DADADA"/><path d="M114.021 413.459c-1.66-1.107-1.291-3.551-1.582-5.459l-2.787 2.238-3.812.311-2.633-1.023c.06.224.124.467.2.712 0 0-.669 3.166-.973 3.693-.392.675-2.277.02-4.795-.334-1.699-.24-2.102 2.697-1.092 5.5l1.972 2.65c.501.44 1.053.864 1.672 1.253l13.417-1.329c-2.012-1.499-2.05-2.12-1.706-3.21.28-.879.916-2.414 1.188-3.06 1.408.29 2.588.433 3.193.38.692-.06 1.248-.201 1.717-.416-1.154-.455-2.924-1.203-3.979-1.906" fill="#9D9D9D"/><path d="M123.27 385.645c-3.902 1.19-18.376-4.242-20.986 4.154 0 0-2.863 1.018-3.744 5.123-.88 4.103-.88 7.134 1.497 11.237 2.378 4.104 3.163 5.973 3.163 5.973s1.715 1.4 4.094 1.819c2.378.413 4.041-1.875 4.706-3.21.668-1.337.714-2.481.714-3.546-.403.471-2.098.26-2.642-1.48-.522-1.667-.78-3.175.357-5.095 1.134-1.922 3.691-1.301 4.198.21.446 1.324.163 4.144.163 4.144s1.758-.191 2.11-1.91c.247-1.217.488-3.003.53-4.16.036-1.048.267-2.127 1.059-2.838 1.099-.985.703-2.566.703-2.566s3.429-.184 5.248-3.394c1.817-3.214 2.73-5.65-1.17-4.46" fill="#021F2F"/><path d="M101.81 413.652c-.262.866.481 2.276 3.6 3.918 4.221 2.218 6.735 1.929 6.735 1.929s5.005 2.67 7.182 4.168c2.741 1.885 3.954 7.346 4.323 16.56.326 8.156.426 21.097.292 27.954a8.308 8.308 0 01-4.77 7.356c-1.95.923-4.397 1.641-7.088 1.424-6.55-.531-18.57-6.42-21.246-10.83.075-9.348.873-15.027.541-20.613-.588-9.85-2.775-17.66-.018-25.573 2.406-6.89 5.187-7.216 7.872-6.844 1.503.207 2.576.55 2.576.55" fill="#1478FF"/><path d="M103.465 413.06c-.683-.289-1.8.532-2.364 1.004 0 0-.953 2.738 2.987 5.305 5.728 3.734 9.048 2.568 9.896 2.01.06-.036-.01-3.263-.974-3.571 0 0-1.552.6-5.497-1.006-3.691-1.5-4.048-3.742-4.048-3.742" fill="#021F2F"/><path d="M154.283 451.29c-1.535 1.182-2.188 1.644-3.926 2.113-1.886.507-6.182 7.732-.58 7.734 1.526 0 2.66.38 5.569.726 2.911.346 6.354.04 8.6-.95 2.245-.991 2.901-1.706 2.901-2.248 0-.684-.606-.908-1.682-.573-1.08.334-2.809 1.067-5.236 1.03 0 0 2.395-.61 3.792-1.104 1.4-.495 2.684-1.188 3.521-1.792 1.035-.747 1.012-2.65-.081-2.342-1.103.312-1.86.848-3.944 1.549-1.896.638-3.406.726-3.406.726s2.22-.88 3.94-1.97c1.716-1.089 2.202-1.895 2.494-2.442.292-.548-.062-1.631-1.369-1.066-1.176.507-2.444 1.657-4.831 2.275-1.737.449-3.024.525-2.863.202.163-.323 1.2-.514 2.366-1.561 1.115-1.001 1.614-2.652 1.008-3.236-.609-.584-.504-.463-1.807.387-1.306.85-2.723 1.196-4.466 2.543z" fill="#DADADA"/><path d="M117.952 424.014c-1.847.145-4.063 1.465-3.948 9.76.116 8.296 5.587 17.027 7.592 19.194 2.003 2.171 5.206 5.208 11.464 6.834 6.257 1.628 17.374 1.125 17.374 1.125s1.274-4.375 0-7.414c0 0-8.687-.165-13.651-1.627-4.965-1.466-6.852-3.526-9.01-6.67-2.16-3.146-3.993-13.068-4.48-15.346-.484-2.278-1.889-6.127-5.341-5.856" fill="#021F2F"/></g></g></svg>