<svg width="24" height="24" viewBox="0 0 24 24" fill="none" xmlns="http://www.w3.org/2000/svg">
<path d="M21.356 11.7615L20.5596 11.2685C20.553 11.1911 20.5456 11.1137 20.5373 11.0364L21.2216 10.3985C21.2553 10.3665 21.2804 10.3264 21.2945 10.2821C21.3086 10.2377 21.3112 10.1905 21.302 10.1449C21.2929 10.0993 21.2724 10.0567 21.2424 10.0211C21.2124 9.98557 21.1738 9.95821 21.1303 9.9416L20.2555 9.61431C20.2339 9.53866 20.211 9.46338 20.1867 9.38853L20.7325 8.63064C20.7599 8.59277 20.7771 8.54853 20.7825 8.50213C20.788 8.45573 20.7814 8.40871 20.7635 8.36555C20.7457 8.32239 20.717 8.28453 20.6804 8.25557C20.6437 8.22661 20.6002 8.20752 20.5541 8.20011L19.6321 8.05038C19.5961 7.9807 19.559 7.9116 19.5209 7.8431L19.9082 6.9924C19.9278 6.94998 19.936 6.90325 19.9322 6.85671C19.9284 6.81017 19.9127 6.76539 19.8866 6.7267C19.8605 6.68793 19.8251 6.65642 19.7835 6.63513C19.7419 6.61383 19.6956 6.60345 19.6489 6.60496L18.7125 6.63784C18.6645 6.57701 18.6151 6.51723 18.5645 6.45855L18.7797 5.54705C18.7904 5.5016 18.7892 5.45418 18.7764 5.40929C18.7636 5.36439 18.7396 5.32351 18.7066 5.29049C18.6736 5.25747 18.6327 5.23342 18.5878 5.2206C18.543 5.20778 18.4955 5.20663 18.4501 5.21724L17.5384 5.43258C17.4789 5.38259 17.4189 5.33324 17.3583 5.28451L17.3911 4.34812C17.3934 4.30126 17.3835 4.25463 17.3624 4.21274C17.3413 4.17085 17.3097 4.13513 17.2707 4.10904C17.2317 4.08295 17.1867 4.06738 17.1399 4.06383C17.0931 4.06029 17.0462 4.0689 17.0038 4.08882L16.1532 4.47697C16.0842 4.43934 16.0154 4.40171 15.9458 4.36574L15.7954 3.44294C15.7875 3.39705 15.7682 3.35388 15.7392 3.31748C15.7101 3.28108 15.6723 3.25264 15.6293 3.23482C15.5863 3.217 15.5395 3.21037 15.4932 3.21557C15.4469 3.22076 15.4027 3.2376 15.3648 3.26452L14.6061 3.81039C14.5312 3.78641 14.456 3.76374 14.3804 3.7424L14.0531 2.86759C14.0365 2.8241 14.0091 2.78554 13.9736 2.7555C13.938 2.72546 13.8954 2.70492 13.8498 2.69581C13.8041 2.6867 13.7569 2.68931 13.7125 2.7034C13.6682 2.71748 13.6281 2.74258 13.5961 2.77636L12.9582 3.46144C12.8809 3.45273 12.8036 3.44525 12.7261 3.43899L12.2331 2.6426C12.2086 2.60288 12.1743 2.57009 12.1335 2.54735C12.0928 2.5246 12.0469 2.51266 12.0002 2.51266C11.9535 2.51266 11.9076 2.5246 11.8669 2.54735C11.8261 2.57009 11.7918 2.60288 11.7673 2.6426L11.2743 3.43891C11.1969 3.44557 11.1195 3.45305 11.0422 3.46136L10.4035 2.77628C10.3717 2.74209 10.3317 2.71661 10.2872 2.70227C10.2428 2.68793 10.1954 2.6852 10.1496 2.69434C10.1038 2.70349 10.0611 2.7242 10.0256 2.75451C9.99005 2.78482 9.96286 2.82372 9.94661 2.86751L9.61925 3.74224C9.5432 3.7639 9.46881 3.78707 9.39355 3.81023L8.63566 3.26452C8.59766 3.2376 8.55345 3.22076 8.50718 3.21557C8.4609 3.21038 8.41407 3.21701 8.37105 3.23485C8.32804 3.25268 8.29024 3.28113 8.26121 3.31753C8.23218 3.35394 8.21286 3.39712 8.20505 3.44302L8.05461 4.36574C7.98493 4.40172 7.91583 4.4388 7.84733 4.47697L6.99654 4.08882C6.95405 4.06937 6.90728 4.06113 6.86069 4.06488C6.81411 4.06864 6.76926 4.08425 6.73042 4.11025C6.69159 4.13625 6.66005 4.17176 6.63883 4.2134C6.61761 4.25503 6.6074 4.30141 6.60918 4.34812L6.64207 5.28451C6.58113 5.33276 6.52109 5.38212 6.46198 5.43258L5.55041 5.21716C5.50495 5.20654 5.45753 5.20768 5.41264 5.22049C5.36775 5.2333 5.32687 5.25734 5.29386 5.29035C5.26085 5.32336 5.23681 5.36424 5.224 5.40913C5.21119 5.45402 5.21005 5.50144 5.22067 5.54689L5.43514 6.45847C5.3855 6.51776 5.33593 6.57776 5.28787 6.63776L4.35147 6.60496C4.30477 6.60317 4.25839 6.61338 4.21675 6.63461C4.17511 6.65583 4.1396 6.68736 4.11361 6.7262C4.08761 6.76504 4.07199 6.80989 4.06824 6.85647C4.06449 6.90305 4.07273 6.94982 4.09217 6.99232L4.48033 7.84302C4.44213 7.91151 4.40505 7.98061 4.3691 8.0503L3.44717 8.20003C3.40127 8.20785 3.35811 8.22717 3.32172 8.2562C3.28532 8.28523 3.25688 8.32301 3.23905 8.36601C3.22122 8.40902 3.21458 8.45584 3.21976 8.5021C3.22494 8.54837 3.24177 8.59257 3.26866 8.63056L3.81445 9.38845C3.79069 9.46343 3.76776 9.53867 3.74568 9.61415L2.87094 9.94144C2.82745 9.95804 2.78888 9.98539 2.75883 10.0209C2.72878 10.0565 2.70824 10.0991 2.69912 10.1447C2.69 10.1904 2.6926 10.2376 2.70668 10.282C2.72076 10.3263 2.74586 10.3664 2.77963 10.3985L3.46393 11.0364C3.45524 11.1136 3.44779 11.191 3.44156 11.2684L2.64524 11.7614C2.60515 11.7857 2.57199 11.8198 2.54897 11.8606C2.52595 11.9014 2.51385 11.9475 2.51385 11.9943C2.51385 12.0412 2.52595 12.0872 2.54897 12.128C2.57199 12.1688 2.60515 12.203 2.64524 12.2272L3.44156 12.7202C3.44788 12.7978 3.45594 12.8755 3.46393 12.9523L2.77963 13.591C2.74545 13.6228 2.71997 13.6628 2.70564 13.7073C2.6913 13.7517 2.68858 13.7991 2.69773 13.8449C2.70688 13.8907 2.7276 13.9334 2.75792 13.969C2.78824 14.0045 2.82715 14.0317 2.87094 14.0479L3.74568 14.3753C3.76726 14.4513 3.7905 14.5266 3.81445 14.601L3.26866 15.3589C3.24104 15.3967 3.22364 15.4411 3.21812 15.4876C3.21261 15.5342 3.21918 15.5813 3.2372 15.6246C3.25521 15.6679 3.28407 15.7058 3.32098 15.7346C3.3579 15.7635 3.40163 15.7824 3.44796 15.7895L4.36989 15.9391C4.40594 16.0087 4.44278 16.0775 4.4812 16.1464L4.09304 16.9972C4.07359 17.0397 4.06536 17.0865 4.06911 17.133C4.07286 17.1796 4.08848 17.2245 4.11448 17.2633C4.14047 17.3021 4.17598 17.3337 4.21762 17.3549C4.25926 17.3761 4.30564 17.3863 4.35234 17.3846L5.28787 17.3517C5.33672 17.4125 5.3855 17.4725 5.43594 17.5318L5.22146 18.4441C5.21077 18.4895 5.21188 18.537 5.22467 18.5818C5.23747 18.6267 5.26154 18.6676 5.29458 18.7006C5.32762 18.7335 5.36854 18.7575 5.41346 18.7702C5.45838 18.7829 5.50579 18.7839 5.5512 18.7731L6.46269 18.5586C6.52198 18.609 6.58206 18.6578 6.64286 18.7059L6.61005 19.6423C6.60796 19.689 6.61798 19.7356 6.63914 19.7774C6.6603 19.8191 6.69188 19.8547 6.73084 19.8807C6.76979 19.9067 6.8148 19.9222 6.8615 19.9257C6.9082 19.9293 6.95501 19.9207 6.99741 19.9008L7.84812 19.5134C7.91689 19.5518 7.98575 19.5886 8.0554 19.6246L8.20584 20.5466C8.21354 20.5925 8.23278 20.6358 8.26177 20.6723C8.29075 20.7088 8.32853 20.7374 8.37156 20.7553C8.4146 20.7732 8.46147 20.7799 8.5078 20.7748C8.55413 20.7696 8.59839 20.7528 8.63645 20.7259L9.39434 20.1801C9.4692 20.2042 9.54444 20.2271 9.62004 20.2488L9.94732 21.1237C9.96339 21.1676 9.99049 21.2067 10.026 21.2372C10.0616 21.2676 10.1043 21.2884 10.1502 21.2976C10.1961 21.3068 10.2436 21.304 10.2881 21.2895C10.3326 21.275 10.3726 21.2493 10.4043 21.2149L11.043 20.5306C11.1199 20.5394 11.1975 20.5466 11.2751 20.5538L11.7681 21.3501C11.7928 21.3897 11.8271 21.4223 11.8678 21.4449C11.9086 21.4675 11.9544 21.4794 12.001 21.4794C12.0476 21.4794 12.0934 21.4675 12.1342 21.4449C12.1749 21.4223 12.2092 21.3897 12.2339 21.3501L12.7269 20.5538C12.8045 20.5466 12.8821 20.5394 12.959 20.5306L13.5969 21.2149C13.6289 21.2486 13.669 21.2737 13.7133 21.2878C13.7577 21.3019 13.8049 21.3045 13.8505 21.2954C13.8961 21.2863 13.9387 21.2657 13.9743 21.2357C14.0098 21.2057 14.0372 21.1671 14.0538 21.1237L14.3812 20.2488C14.4568 20.2272 14.532 20.2043 14.6069 20.1801L15.3648 20.7259C15.4026 20.7535 15.447 20.7709 15.4935 20.7764C15.54 20.7819 15.5872 20.7753 15.6305 20.7573C15.6738 20.7393 15.7116 20.7105 15.7405 20.6735C15.7694 20.6366 15.7883 20.5929 15.7954 20.5466L15.9458 19.6246C16.0154 19.5886 16.0842 19.551 16.1531 19.5134L17.0039 19.9008C17.0463 19.9199 17.0929 19.928 17.1394 19.9242C17.1858 19.9204 17.2305 19.9048 17.2692 19.8789C17.308 19.8531 17.3395 19.8178 17.3609 19.7764C17.3822 19.735 17.3926 19.6888 17.3912 19.6423L17.3584 18.7059C17.4192 18.6581 17.479 18.609 17.5376 18.5586L18.4492 18.7731C18.4946 18.7836 18.5419 18.7825 18.5867 18.7697C18.6315 18.7569 18.6723 18.733 18.7053 18.7001C18.7383 18.6672 18.7623 18.6264 18.7752 18.5817C18.7881 18.5369 18.7894 18.4896 18.7789 18.4442L18.5645 17.5318C18.6141 17.4725 18.6637 17.4125 18.7117 17.3517L19.6481 17.3845C19.695 17.3867 19.7416 17.3768 19.7835 17.3557C19.8254 17.3346 19.8611 17.303 19.8872 17.264C19.9133 17.2251 19.9289 17.18 19.9324 17.1332C19.936 17.0865 19.9274 17.0396 19.9074 16.9971L19.5201 16.1465C19.5576 16.0775 19.5953 16.0088 19.6313 15.9391L20.5532 15.7895C20.5991 15.7817 20.6423 15.7623 20.6787 15.7333C20.7151 15.7043 20.7436 15.6665 20.7614 15.6235C20.7792 15.5805 20.7859 15.5336 20.7807 15.4873C20.7755 15.4411 20.7587 15.3969 20.7317 15.3589L20.186 14.601L20.2547 14.3753L21.1295 14.048C21.1733 14.0317 21.2123 14.0046 21.2426 13.969C21.2729 13.9335 21.2936 13.8908 21.3028 13.845C21.3119 13.7991 21.3092 13.7518 21.2948 13.7073C21.2805 13.6628 21.255 13.6228 21.2208 13.591L20.5365 12.9523C20.5445 12.8755 20.5524 12.7978 20.5588 12.7202L21.3552 12.2272C21.3953 12.203 21.4284 12.1688 21.4514 12.128C21.4745 12.0872 21.4865 12.0412 21.4865 11.9943C21.4865 11.9475 21.4745 11.9014 21.4514 11.8606C21.4284 11.8198 21.3953 11.7857 21.3552 11.7614L21.356 11.7615ZM16.0267 18.3666C15.881 18.3346 15.754 18.2462 15.6733 18.1208C15.5926 17.9954 15.5648 17.8432 15.596 17.6974C15.6272 17.5516 15.7148 17.424 15.8397 17.3426C15.9647 17.2612 16.1167 17.2326 16.2627 17.263C16.3362 17.2775 16.4061 17.3065 16.4682 17.3483C16.5304 17.3901 16.5836 17.4438 16.6248 17.5064C16.666 17.5689 16.6943 17.6391 16.7081 17.7127C16.7219 17.7863 16.7209 17.862 16.7052 17.9352C16.6895 18.0084 16.6593 18.0778 16.6165 18.1393C16.5737 18.2007 16.5191 18.2531 16.4559 18.2932C16.3926 18.3334 16.322 18.3605 16.2482 18.3731C16.1744 18.3857 16.0988 18.3835 16.0258 18.3666H16.0267ZM15.7561 16.5371C15.6901 16.5229 15.622 16.5218 15.5556 16.534C15.4892 16.5462 15.4258 16.5714 15.3691 16.6081C15.3125 16.6448 15.2636 16.6924 15.2254 16.748C15.1871 16.8037 15.1602 16.8663 15.1462 16.9324L14.8638 18.2514C13.9914 18.6474 13.023 18.8676 12.0026 18.8676C10.9935 18.8691 9.99646 18.6494 9.08144 18.2241L8.7989 16.9052C8.78492 16.8391 8.75803 16.7765 8.71977 16.7209C8.68152 16.6653 8.63265 16.6178 8.57598 16.5812C8.51931 16.5445 8.45596 16.5194 8.38956 16.5073C8.32317 16.4952 8.25503 16.4964 8.18908 16.5107L7.02461 16.7603C6.80824 16.5375 6.60716 16.3004 6.42277 16.0504H12.0891C12.1531 16.0504 12.1963 16.0393 12.1963 15.9809V13.976C12.1963 13.9175 12.1539 13.9064 12.0891 13.9064H10.4316V12.6354H12.2243C12.3876 12.6354 13.0991 12.6819 13.3263 13.5911C13.3976 13.8704 13.5536 14.7803 13.6609 15.0717C13.7673 15.3982 14.2011 16.0504 14.6637 16.0504H17.4872C17.5216 16.05 17.5559 16.0465 17.5897 16.0401C17.3939 16.306 17.1794 16.5577 16.9478 16.7931L15.7561 16.5371ZM7.91855 18.3394C7.84559 18.3563 7.76998 18.3585 7.69615 18.3459C7.62231 18.3333 7.55172 18.3062 7.48848 18.266C7.42525 18.2259 7.37064 18.1735 7.32784 18.1121C7.28504 18.0506 7.25489 17.9812 7.23917 17.908C7.22345 17.8348 7.22246 17.7591 7.23626 17.6855C7.25007 17.6119 7.27838 17.5417 7.31956 17.4792C7.36074 17.4166 7.41397 17.3629 7.47613 17.3211C7.53829 17.2793 7.60815 17.2503 7.68163 17.2358C7.82692 17.2071 7.97767 17.2366 8.10138 17.318C8.22508 17.3995 8.31183 17.5262 8.34292 17.671C8.374 17.8158 8.34694 17.967 8.26755 18.0921C8.18817 18.2171 8.06282 18.3059 7.91855 18.3394ZM5.76891 9.62222C5.80152 9.69027 5.82014 9.76418 5.82368 9.83956C5.82722 9.91494 5.81559 9.99027 5.7895 10.0611C5.76341 10.1319 5.72338 10.1967 5.67178 10.2518C5.62018 10.3069 5.55805 10.351 5.48909 10.3817C5.42012 10.4123 5.3457 10.4288 5.27025 10.4301C5.1948 10.4315 5.11984 10.4177 5.04982 10.3896C4.97979 10.3614 4.91611 10.3196 4.86256 10.2664C4.80901 10.2132 4.76667 10.1498 4.73804 10.08C4.68253 9.94421 4.68211 9.79211 4.73686 9.65598C4.79162 9.51986 4.89725 9.41042 5.03135 9.35088C5.16544 9.29134 5.31746 9.28638 5.45516 9.33705C5.59285 9.38772 5.7054 9.48996 5.76891 9.62222ZM5.10865 11.1885L6.3219 10.6491C6.38361 10.6216 6.43932 10.5824 6.48584 10.5334C6.53236 10.4845 6.56877 10.4268 6.593 10.3638C6.61723 10.3008 6.6288 10.2336 6.62704 10.1661C6.62529 10.0986 6.61025 10.0321 6.58278 9.97037L6.33312 9.40537H7.31592V13.8344H5.33348C5.08902 12.9748 5.01295 12.0761 5.10944 11.1876L5.10865 11.1885ZM10.4324 10.7587V9.45336H12.7725C12.8934 9.45336 13.6256 9.59344 13.6256 10.1409C13.6256 10.5955 13.0638 10.7587 12.602 10.7587H10.4324ZM18.9366 11.9336C18.9366 12.1065 18.9303 12.2785 18.9174 12.4482H18.2059C18.1347 12.4482 18.1059 12.4946 18.1059 12.565V12.8915C18.1059 13.6607 17.6721 13.828 17.2919 13.8704C16.9302 13.9112 16.5292 13.7191 16.4797 13.4975C16.2659 12.2969 15.9106 12.04 15.3488 11.5975C16.0458 11.1548 16.771 10.5018 16.771 9.62783C16.771 8.68424 16.1235 8.08959 15.6825 7.79749C15.0639 7.38933 14.3788 7.30775 14.1939 7.30775H6.83654C7.85335 6.17077 9.2169 5.40107 10.7157 5.11802L11.5833 6.02794C11.6297 6.07684 11.6854 6.11608 11.7471 6.1434C11.8088 6.17073 11.8753 6.1856 11.9427 6.18716C12.0102 6.18873 12.0772 6.17696 12.1401 6.15252C12.203 6.12809 12.2605 6.09147 12.3091 6.04478L13.2791 5.11644C14.2682 5.30193 15.205 5.70037 16.0247 6.28411C16.8443 6.86786 17.5272 7.62293 18.0259 8.49696L17.3616 9.99757C17.3065 10.1222 17.3031 10.2636 17.352 10.3907C17.4008 10.5179 17.4981 10.6206 17.6225 10.6762L18.9014 11.2445C18.9238 11.4718 18.935 11.7006 18.935 11.9336H18.9366ZM11.5841 4.34495C11.6922 4.2418 11.8369 4.18583 11.9863 4.18936C12.0603 4.1911 12.1332 4.20741 12.2009 4.23733C12.2686 4.26726 12.3297 4.31022 12.3808 4.36377C12.4318 4.41732 12.4719 4.4804 12.4986 4.54942C12.5253 4.61844 12.5381 4.69204 12.5364 4.76602C12.5346 4.84 12.5183 4.91291 12.4884 4.98059C12.4585 5.04827 12.4155 5.1094 12.362 5.16048C12.2524 5.25509 12.1106 5.30395 11.966 5.29694C11.8213 5.28993 11.6849 5.22759 11.585 5.12282C11.4851 5.01805 11.4292 4.87886 11.4291 4.73407C11.4289 4.58928 11.4844 4.44997 11.5841 4.34495ZM18.1763 9.64949C18.2062 9.58181 18.2491 9.52069 18.3026 9.46964C18.3561 9.41858 18.4192 9.37859 18.4882 9.35197C18.5572 9.32534 18.6307 9.3126 18.7047 9.31448C18.7786 9.31636 18.8515 9.33282 18.919 9.36292C19.0212 9.40799 19.1076 9.48235 19.1675 9.57658C19.2274 9.67082 19.2579 9.78069 19.2553 9.8923C19.2527 10.0039 19.217 10.1122 19.1528 10.2036C19.0886 10.2949 18.9988 10.3651 18.8946 10.4054C18.7905 10.4456 18.6768 10.4541 18.5679 10.4297C18.4589 10.4052 18.3597 10.3491 18.2827 10.2682C18.2057 10.1874 18.1544 10.0855 18.1353 9.97551C18.1163 9.86551 18.1302 9.75233 18.1755 9.65028L18.1763 9.64949Z" fill="black"/>
</svg>
