<svg width="24" height="24" viewBox="0 0 24 24" fill="none" xmlns="http://www.w3.org/2000/svg">
<g clip-path="url(#clip0_13_135)">
<path d="M5.07875 6.07874C5.07875 6.07874 8.8685 4.18499 10.763 3.23699C11.1078 3.06701 11.4896 2.9858 11.8737 3.00074C12.4482 3.03599 13.1315 3.59174 13.1315 3.59174L20 10.461V17.8027H16.8027V21H9.34175L2.59175 14.25C2.22725 13.875 2 13.3462 2 12.8287C2 12.5895 2.135 12.2152 2.237 12L5.07875 6.07874ZM5.588 6.58799V15.4282C5.5895 15.8355 5.60375 16.1962 5.9615 16.5592L9.653 20.25H16.0527V17.0527L5.588 6.58799ZM14.6293 6.07949C13.955 5.40749 13.2725 4.74449 12.5742 4.09724C12.3477 3.89699 12.149 3.74624 11.7718 3.75074C11.4943 3.76124 11.1193 3.89699 11.1193 3.89699L6.75575 6.07874L14.6293 6.07949Z" fill="black"/>
</g>
<defs>
<clipPath id="clip0_13_135">
<rect width="18" height="18" fill="white" transform="translate(2 3)"/>
</clipPath>
</defs>
</svg>
