<svg width="24" height="24" viewBox="0 0 24 24" fill="none" xmlns="http://www.w3.org/2000/svg">
<path d="M14.4517 11.2761H16.1153C16.1539 11.2761 16.1909 11.2608 16.2183 11.2336C16.2456 11.2064 16.2611 11.1695 16.2613 11.1309V9.64942C16.2613 9.61069 16.2459 9.57355 16.2185 9.54616C16.1912 9.51878 16.154 9.50339 16.1153 9.50339H14.4517C14.4132 9.50339 14.3762 9.5187 14.349 9.54593C14.3217 9.57317 14.3064 9.61011 14.3064 9.64863V11.1309C14.3064 11.211 14.3716 11.2761 14.4517 11.2761ZM12.1325 7.0131H13.7954C13.8341 7.0131 13.8712 6.99772 13.8986 6.97033C13.926 6.94295 13.9414 6.9058 13.9414 6.86708V5.38483C13.9412 5.34624 13.9257 5.3093 13.8983 5.28209C13.871 5.25487 13.8339 5.23959 13.7954 5.23959H12.1325C12.094 5.23959 12.0571 5.2549 12.0298 5.28213C12.0026 5.30937 11.9873 5.34631 11.9873 5.38483V6.86708C11.9873 6.94715 12.0517 7.0131 12.1325 7.0131ZM12.1325 9.14461H13.7954C13.834 9.1444 13.871 9.12895 13.8984 9.10161C13.9257 9.07427 13.9412 9.03725 13.9414 8.99858V7.51713C13.9412 7.47853 13.9257 7.44159 13.8983 7.41438C13.871 7.38716 13.8339 7.37189 13.7954 7.37189H12.1325C12.094 7.37189 12.0571 7.38719 12.0298 7.41443C12.0026 7.44166 11.9873 7.47861 11.9873 7.51713V8.99858C11.9873 9.07866 12.0517 9.14382 12.1325 9.14461ZM9.83224 9.14461H11.4966C11.5351 9.1442 11.5718 9.12863 11.5989 9.10129C11.6259 9.07395 11.6411 9.03704 11.6411 8.99858V7.51713C11.6411 7.47861 11.6258 7.44166 11.5985 7.41443C11.5713 7.38719 11.5344 7.37189 11.4958 7.37189H9.83302C9.7945 7.37189 9.75756 7.38719 9.73032 7.41443C9.70309 7.44166 9.68778 7.47861 9.68778 7.51713V8.99858C9.68778 9.07866 9.75216 9.14382 9.83224 9.14461ZM7.50603 9.14461H9.16963C9.20822 9.1444 9.24516 9.12893 9.27238 9.10156C9.29959 9.0742 9.31487 9.03718 9.31487 8.99858V7.51713C9.31487 7.47861 9.29956 7.44166 9.27233 7.41443C9.24509 7.38719 9.20815 7.37189 9.16963 7.37189H7.50603C7.46744 7.37189 7.43041 7.38716 7.40305 7.41438C7.37569 7.44159 7.36021 7.47853 7.36 7.51713V8.99858C7.36 9.07866 7.42595 9.14382 7.50603 9.14461ZM12.1325 11.2761H13.7954C13.8339 11.2761 13.871 11.2608 13.8983 11.2336C13.9257 11.2064 13.9412 11.1695 13.9414 11.1309V9.64942C13.9414 9.61069 13.926 9.57355 13.8986 9.54616C13.8712 9.51878 13.8341 9.50339 13.7954 9.50339H12.1325C12.094 9.50339 12.0571 9.5187 12.0298 9.54593C12.0026 9.57317 11.9873 9.61011 11.9873 9.64863V11.1309C11.9873 11.211 12.0517 11.2761 12.1325 11.2761ZM9.83224 11.2761H11.4966C11.535 11.2759 11.5717 11.2605 11.5988 11.2333C11.6259 11.2061 11.6411 11.1693 11.6411 11.1309V9.64942C11.6412 9.63035 11.6375 9.61144 11.6303 9.59378C11.6231 9.57612 11.6125 9.56005 11.5991 9.54649C11.5857 9.53293 11.5697 9.52214 11.5521 9.51475C11.5346 9.50736 11.5157 9.5035 11.4966 9.50339H9.83224C9.79385 9.5036 9.75711 9.519 9.73004 9.54621C9.70298 9.57343 9.68778 9.61025 9.68778 9.64863V11.1309C9.68778 11.211 9.75216 11.2761 9.83224 11.2761ZM7.50603 11.2761H9.16963C9.20815 11.2761 9.24509 11.2608 9.27233 11.2336C9.29956 11.2063 9.31487 11.1694 9.31487 11.1309V9.64942C9.31497 9.63035 9.31132 9.61144 9.30411 9.59378C9.29691 9.57612 9.2863 9.56005 9.27288 9.54649C9.25947 9.53293 9.24352 9.52214 9.22593 9.51475C9.20835 9.50736 9.18948 9.5035 9.17041 9.50339H7.50603C7.4673 9.50339 7.43016 9.51878 7.40277 9.54616C7.37539 9.57355 7.36 9.61069 7.36 9.64942V11.1309C7.36 11.211 7.42595 11.2761 7.50603 11.2761ZM5.21358 11.2761H6.87796C6.91635 11.2759 6.95309 11.2605 6.98015 11.2333C7.00722 11.2061 7.02242 11.1693 7.02242 11.1309V9.64942C7.02252 9.63035 7.01887 9.61144 7.01166 9.59378C7.00446 9.57612 6.99385 9.56005 6.98043 9.54649C6.96702 9.53293 6.95106 9.52214 6.93348 9.51475C6.9159 9.50736 6.89703 9.5035 6.87796 9.50339H5.21358C5.1752 9.5036 5.13845 9.519 5.11139 9.54621C5.08432 9.57343 5.06912 9.61025 5.06912 9.64863V11.1309C5.06912 11.211 5.13272 11.2761 5.21358 11.2761ZM22.1298 10.3434C22.0788 10.3034 21.6022 9.94304 20.5958 9.94304C20.3304 9.94383 20.065 9.96659 19.8028 10.0113C19.6081 8.6767 18.5051 8.02508 18.4556 7.99681L18.1856 7.84058L18.0081 8.09731C17.7852 8.44117 17.6234 8.82115 17.5276 9.21998C17.3471 9.98151 17.457 10.6975 17.844 11.3091C17.3769 11.5697 16.6272 11.6333 16.4748 11.6388H4.06343C3.9076 11.639 3.75819 11.7009 3.64786 11.811C3.53752 11.921 3.47524 12.0702 3.47461 12.2261C3.46008 13.3133 3.64419 14.394 4.01789 15.4151C4.44577 16.5362 5.08168 17.3621 5.90995 17.8677C6.83635 18.4353 8.34372 18.7603 10.0513 18.7603C10.823 18.7627 11.5924 18.6928 12.3516 18.5515C13.4058 18.3578 14.4203 17.9893 15.353 17.461C16.1223 17.0159 16.8132 16.4498 17.402 15.7841C18.385 14.6708 18.9706 13.4312 19.4064 12.3297H19.5799C20.657 12.3297 21.3188 11.8987 21.6839 11.5376C21.9265 11.3075 22.1157 11.0272 22.2389 10.7164L22.3159 10.4902L22.1298 10.3434Z" fill="black"/>
</svg>
