<svg width="24" height="24" viewBox="0 0 24 24" fill="none" xmlns="http://www.w3.org/2000/svg">
<path d="M8.81945 3.50342C8.61624 3.50342 8.41374 3.50342 8.21053 3.50483C8.03989 3.50625 7.86854 3.50696 7.6979 3.51191C7.60444 3.51404 7.51169 3.51829 7.41823 3.52254C7.1379 3.53344 6.85858 3.56253 6.58202 3.60963C6.21345 3.6748 5.85621 3.79284 5.52137 3.96011C4.84921 4.30203 4.30265 4.84809 3.96012 5.51994C3.78665 5.8598 3.6769 6.20816 3.60964 6.58201C3.54379 6.95019 3.52326 7.32546 3.51335 7.69789C3.50876 7.86873 3.50592 8.03962 3.50485 8.21052C3.50343 8.41373 3.50343 8.61623 3.50343 8.81944V15.1805C3.50343 15.3837 3.50343 15.5877 3.50485 15.7909C3.50627 15.9608 3.50839 16.1314 3.51335 16.3021C3.52326 16.6745 3.54379 17.0505 3.60964 17.418C3.6769 17.7918 3.78665 18.1402 3.96012 18.48C4.30225 19.1522 4.84892 19.6983 5.52137 20.0399C5.86123 20.2126 6.20817 20.3231 6.58202 20.3903C6.95021 20.4562 7.32547 20.4781 7.6979 20.4881C7.86854 20.493 8.03989 20.4944 8.21053 20.4951C8.41374 20.4966 8.61624 20.4966 8.81945 20.4966H15.1805C15.3838 20.4966 15.5863 20.4966 15.7895 20.4951C15.9601 20.4944 16.1315 20.493 16.3021 20.4881C16.6765 20.4836 17.0499 20.4509 17.4194 20.3903C17.7884 20.3269 18.1459 20.2087 18.48 20.0399C19.1518 19.6979 19.6979 19.1518 20.0399 18.48C20.2133 18.1402 20.3231 17.7918 20.3904 17.418C20.4562 17.0498 20.4782 16.6745 20.4881 16.3021C20.493 16.1314 20.4944 15.9615 20.4951 15.7909C20.4966 15.5877 20.4966 15.3837 20.4966 15.1805V8.81944C20.4966 8.61623 20.4966 8.41373 20.4951 8.21052C20.4946 8.03962 20.4923 7.86873 20.4881 7.69789C20.4836 7.324 20.4509 6.95098 20.3904 6.58201C20.3269 6.21254 20.2088 5.85458 20.0399 5.51994C19.6978 4.84828 19.1517 4.30223 18.48 3.96011C18.1459 3.79122 17.7884 3.67309 17.4194 3.60963C17.05 3.54895 16.6765 3.51629 16.3021 3.51191C16.1317 3.5078 15.9613 3.50544 15.7909 3.50483C15.5877 3.50342 15.3838 3.50342 15.1805 3.50342H8.81945ZM13.0925 5.91786C16.0054 7.66674 17.7267 10.9889 17.0215 13.7991C17.0045 13.865 16.9861 13.9273 16.9677 13.9917L16.9691 13.9924C18.4291 15.7895 18.0311 17.7153 17.8442 17.3521C17.0852 15.8751 15.6733 16.2419 14.9497 16.6136C14.8843 16.6525 14.818 16.6898 14.7508 16.7255L14.7366 16.734L14.7352 16.7354C13.2377 17.5305 11.2254 17.5886 9.20392 16.7198C7.55795 16.0066 6.16597 14.8125 5.21054 13.2943C5.67006 13.6342 6.1664 13.933 6.69531 14.1808C8.8329 15.1819 10.9797 15.109 12.4992 14.1794C10.3368 12.5169 8.53128 10.3502 7.14704 8.59499C6.88391 8.28799 6.64594 7.96028 6.43546 7.61505C8.09229 9.13169 10.7106 11.0349 11.6502 11.5631C9.65636 9.45668 7.89899 6.86169 7.98112 6.94453C11.122 10.1095 14.0194 11.898 14.0194 11.898C14.1284 11.9582 14.2105 12.0071 14.2742 12.0488C14.3344 11.8966 14.3875 11.7394 14.4328 11.5759C14.9341 9.74344 14.3691 7.64762 13.0925 5.91715V5.91786Z" fill="black"/>
</svg>
